<svg width="181" height="156" viewBox="0 0 181 156" fill="none" xmlns="http://www.w3.org/2000/svg">
<path d="M0.5 144.029H2.8622L5.35705 150.116H5.46325L7.9581 144.029H10.3203V153.088H8.46239V147.192H8.38713L6.04269 153.044H4.77761L2.43306 147.17H2.35791V153.088H0.5V144.029ZM13.4599 153.088H11.4073L14.5348 144.029H17.0031L20.1261 153.088H18.0736L15.8043 146.099H15.7335L13.4599 153.088ZM13.3316 149.527H18.1797V151.022H13.3316V149.527ZM28.784 147.2H26.8465C26.8111 146.95 26.7389 146.727 26.6298 146.533C26.5207 146.335 26.3805 146.167 26.2096 146.028C26.0385 145.89 25.841 145.784 25.6167 145.71C25.3956 145.636 25.1552 145.599 24.8957 145.599C24.4268 145.599 24.0184 145.716 23.6704 145.949C23.3224 146.179 23.0526 146.515 22.8609 146.957C22.6693 147.397 22.5734 147.93 22.5734 148.559C22.5734 149.204 22.6693 149.747 22.8609 150.186C23.0555 150.626 23.3269 150.958 23.6749 151.182C24.0228 151.406 24.4254 151.518 24.8825 151.518C25.139 151.518 25.3764 151.484 25.5946 151.416C25.8158 151.348 26.0119 151.25 26.183 151.12C26.3541 150.987 26.4956 150.826 26.6077 150.638C26.7227 150.449 26.8023 150.234 26.8465 149.992L28.784 150.001C28.7339 150.416 28.6085 150.817 28.4081 151.204C28.2104 151.587 27.9435 151.931 27.6074 152.235C27.2741 152.535 26.876 152.774 26.413 152.951C25.953 153.125 25.4325 153.212 24.8515 153.212C24.0435 153.212 23.321 153.029 22.684 152.664C22.05 152.298 21.5486 151.769 21.18 151.076C20.8143 150.383 20.6315 149.543 20.6315 148.559C20.6315 147.571 20.8173 146.73 21.1888 146.037C21.5604 145.344 22.0647 144.816 22.7017 144.453C23.3386 144.088 24.0553 143.905 24.8515 143.905C25.3764 143.905 25.8631 143.979 26.3113 144.126C26.7624 144.274 27.1621 144.489 27.51 144.772C27.858 145.052 28.1412 145.396 28.3594 145.803C28.5806 146.21 28.7221 146.676 28.784 147.2ZM30.1575 153.088V144.029H32.0729V147.767H35.9611V144.029H37.8722V153.088H35.9611V149.346H32.0729V153.088H30.1575ZM41.3666 144.029V153.088H39.4514V144.029H41.3666ZM50.5202 144.029V153.088H48.8655L44.924 147.386H44.8576V153.088H42.9424V144.029H44.624L48.5344 149.726H48.6133V144.029H50.5202ZM52.1022 153.088V144.029H58.2069V145.608H54.0184V147.767H57.8934V149.346H54.0184V151.509H58.2246V153.088H52.1022ZM64.5287 144.029V153.088H62.6124V144.029H64.5287ZM73.6812 144.029V153.088H72.0276L68.0861 147.386H68.0197V153.088H66.1044V144.029H67.7851L71.6954 149.726H71.7753V144.029H73.6812ZM78.476 153.088H75.2642V144.029H78.5019C79.4133 144.029 80.1981 144.21 80.8552 144.573C81.5133 144.933 82.0188 145.45 82.3728 146.126C82.7299 146.801 82.9085 147.609 82.9085 148.55C82.9085 149.493 82.7299 150.304 82.3728 150.983C82.0188 151.661 81.5102 152.181 80.8469 152.544C80.1856 152.907 79.3957 153.088 78.476 153.088ZM77.1794 151.447H78.396C78.9618 151.447 79.4382 151.347 79.8244 151.146C80.2137 150.943 80.5064 150.629 80.7005 150.204C80.8988 149.777 80.9974 149.225 80.9974 148.55C80.9974 147.88 80.8988 147.333 80.7005 146.909C80.5064 146.484 80.2157 146.171 79.8296 145.971C79.4434 145.77 78.967 145.67 78.4002 145.67H77.1794V151.447ZM89.9226 144.029H91.8378V149.912C91.8378 150.573 91.68 151.151 91.3644 151.646C91.052 152.142 90.6139 152.528 90.0513 152.805C89.4876 153.079 88.8316 153.217 88.0821 153.217C87.3306 153.217 86.6724 153.079 86.1098 152.805C85.5461 152.528 85.1081 152.142 84.7956 151.646C84.4832 151.151 84.3264 150.573 84.3264 149.912V144.029H86.2427V149.748C86.2427 150.094 86.3174 150.4 86.4679 150.669C86.6216 150.937 86.8365 151.148 87.1136 151.301C87.3908 151.454 87.7136 151.531 88.0821 151.531C88.4537 151.531 88.7766 151.454 89.0516 151.301C89.3288 151.148 89.5427 150.937 89.6921 150.669C89.8458 150.4 89.9226 150.094 89.9226 149.748V144.029ZM98.3287 146.634C98.2935 146.277 98.1408 146 97.873 145.803C97.6042 145.605 97.2398 145.506 96.78 145.506C96.4675 145.506 96.2038 145.55 95.9879 145.639C95.7731 145.724 95.608 145.844 95.4928 145.997C95.3807 146.151 95.3246 146.325 95.3246 146.519C95.3194 146.681 95.3526 146.823 95.4263 146.944C95.5032 147.065 95.608 147.17 95.7409 147.258C95.8737 147.344 96.0263 147.419 96.2007 147.484C96.3751 147.546 96.5609 147.599 96.7582 147.643L97.572 147.838C97.9675 147.926 98.3298 148.044 98.6599 148.191C98.99 148.339 99.2765 148.52 99.5183 148.735C99.7602 148.951 99.9471 149.204 100.08 149.496C100.216 149.788 100.285 150.123 100.288 150.5C100.285 151.055 100.143 151.536 99.863 151.943C99.5858 152.347 99.1851 152.661 98.6599 152.885C98.1377 153.106 97.5087 153.217 96.7717 153.217C96.0398 153.217 95.4035 153.104 94.8606 152.88C94.3208 152.656 93.8994 152.324 93.5952 151.885C93.2942 151.443 93.1364 150.896 93.1219 150.244H94.9758C94.9955 150.548 95.0827 150.801 95.2364 151.005C95.3931 151.205 95.6007 151.357 95.8602 151.46C96.1229 151.561 96.4187 151.611 96.7488 151.611C97.0737 151.611 97.355 151.564 97.5938 151.469C97.8357 151.375 98.0236 151.244 98.1564 151.076C98.2883 150.907 98.3547 150.714 98.3547 150.496C98.3547 150.293 98.2945 150.121 98.1741 149.983C98.0557 149.844 97.8813 149.726 97.6519 149.629C97.4246 149.532 97.1464 149.443 96.8153 149.364L95.8291 149.116C95.0651 148.93 94.462 148.64 94.0198 148.244C93.5776 147.849 93.3575 147.317 93.3606 146.648C93.3575 146.099 93.5039 145.62 93.7987 145.21C94.0966 144.8 94.5045 144.48 95.0236 144.25C95.5426 144.02 96.1333 143.905 96.7935 143.905C97.4661 143.905 98.0526 144.02 98.554 144.25C99.0585 144.48 99.4509 144.8 99.7312 145.21C100.01 145.62 100.156 146.095 100.164 146.634H98.3287ZM101.231 145.608V144.029H108.672V145.608H105.898V153.088H104.005V145.608H101.231ZM109.897 153.088V144.029H113.471C114.156 144.029 114.739 144.151 115.223 144.396C115.71 144.638 116.079 144.981 116.334 145.427C116.59 145.869 116.718 146.39 116.718 146.988C116.718 147.59 116.588 148.107 116.329 148.541C116.069 148.971 115.693 149.302 115.201 149.532C114.711 149.762 114.119 149.877 113.423 149.877H111.029V148.337H113.113C113.479 148.337 113.782 148.287 114.024 148.187C114.266 148.087 114.446 147.936 114.564 147.736C114.684 147.535 114.746 147.286 114.746 146.988C114.746 146.687 114.684 146.434 114.564 146.227C114.446 146.021 114.265 145.865 114.02 145.758C113.778 145.649 113.473 145.595 113.104 145.595H111.812V153.088H109.897ZM114.789 148.965L117.041 153.088H114.926L112.723 148.965H114.789ZM117.164 144.029H119.309L121.375 147.93H121.464L123.53 144.029H125.674L122.37 149.886V153.088H120.468V149.886L117.164 144.029ZM137.597 147.2H135.659C135.624 146.95 135.552 146.727 135.443 146.533C135.334 146.335 135.194 146.167 135.023 146.028C134.852 145.89 134.654 145.784 134.43 145.71C134.209 145.636 133.968 145.599 133.709 145.599C133.24 145.599 132.832 145.716 132.484 145.949C132.136 146.179 131.866 146.515 131.674 146.957C131.482 147.397 131.387 147.93 131.387 148.559C131.387 149.204 131.482 149.747 131.674 150.186C131.868 150.626 132.14 150.958 132.488 151.182C132.836 151.406 133.238 151.518 133.695 151.518C133.953 151.518 134.189 151.484 134.407 151.416C134.629 151.348 134.825 151.25 134.996 151.12C135.167 150.987 135.308 150.826 135.42 150.638C135.536 150.449 135.616 150.234 135.659 149.992L137.597 150.001C137.547 150.416 137.422 150.817 137.221 151.204C137.023 151.587 136.756 151.931 136.42 152.235C136.087 152.535 135.689 152.774 135.226 152.951C134.766 153.125 134.245 153.212 133.665 153.212C132.856 153.212 132.134 153.029 131.497 152.664C130.863 152.298 130.362 151.769 129.994 151.076C129.627 150.383 129.444 149.543 129.444 148.559C129.444 147.571 129.63 146.73 130.002 146.037C130.373 145.344 130.878 144.816 131.515 144.453C132.152 144.088 132.869 143.905 133.665 143.905C134.189 143.905 134.676 143.979 135.125 144.126C135.575 144.274 135.975 144.489 136.324 144.772C136.671 145.052 136.955 145.396 137.173 145.803C137.394 146.21 137.535 146.676 137.597 147.2ZM147.296 148.559C147.296 149.546 147.109 150.387 146.734 151.08C146.363 151.773 145.855 152.302 145.212 152.668C144.572 153.031 143.853 153.212 143.053 153.212C142.249 153.212 141.526 153.029 140.886 152.664C140.246 152.298 139.741 151.769 139.369 151.076C138.998 150.383 138.812 149.543 138.812 148.559C138.812 147.571 138.998 146.73 139.369 146.037C139.741 145.344 140.246 144.816 140.886 144.453C141.526 144.088 142.249 143.905 143.053 143.905C143.853 143.905 144.572 144.088 145.212 144.453C145.855 144.816 146.363 145.344 146.734 146.037C147.109 146.73 147.296 147.571 147.296 148.559ZM145.354 148.559C145.354 147.919 145.258 147.379 145.066 146.94C144.877 146.5 144.61 146.167 144.266 145.94C143.921 145.713 143.516 145.599 143.053 145.599C142.59 145.599 142.186 145.713 141.842 145.94C141.496 146.167 141.228 146.5 141.036 146.94C140.847 147.379 140.753 147.919 140.753 148.559C140.753 149.198 140.847 149.738 141.036 150.178C141.228 150.617 141.496 150.95 141.842 151.177C142.186 151.404 142.59 151.518 143.053 151.518C143.516 151.518 143.921 151.404 144.266 151.177C144.61 150.95 144.877 150.617 145.066 150.178C145.258 149.738 145.354 149.198 145.354 148.559ZM149.209 153.203C148.917 153.203 148.666 153.1 148.457 152.894C148.251 152.684 148.147 152.434 148.147 152.142C148.147 151.853 148.251 151.605 148.457 151.398C148.666 151.192 148.917 151.089 149.209 151.089C149.492 151.089 149.739 151.192 149.952 151.398C150.164 151.605 150.271 151.853 150.271 152.142C150.271 152.336 150.22 152.515 150.12 152.677C150.023 152.836 149.894 152.964 149.735 153.062C149.576 153.156 149.401 153.203 149.209 153.203ZM153.866 151.85L153.817 152.336C153.778 152.726 153.705 153.113 153.596 153.5C153.49 153.889 153.378 154.241 153.259 154.557C153.145 154.872 153.052 155.12 152.981 155.3H151.76C151.804 155.126 151.865 154.883 151.941 154.57C152.018 154.26 152.091 153.912 152.158 153.526C152.227 153.14 152.269 152.746 152.287 152.345L152.309 151.85H153.866ZM155.624 153.088V144.029H157.539V151.509H161.424V153.088H155.624ZM161.215 145.608V144.029H168.656V145.608H165.882V153.088H163.989V145.608H161.215ZM173.092 153.088H169.881V144.029H173.119C174.031 144.029 174.815 144.21 175.473 144.573C176.13 144.933 176.636 145.45 176.989 146.126C177.346 146.801 177.525 147.609 177.525 148.55C177.525 149.493 177.346 150.304 176.989 150.983C176.636 151.661 176.127 152.181 175.463 152.544C174.803 152.907 174.013 153.088 173.092 153.088ZM171.797 151.447H173.013C173.579 151.447 174.056 151.347 174.442 151.146C174.831 150.943 175.123 150.629 175.318 150.204C175.515 149.777 175.614 149.225 175.614 148.55C175.614 147.88 175.515 147.333 175.318 146.909C175.123 146.484 174.832 146.171 174.446 145.971C174.06 145.77 173.583 145.67 173.018 145.67H171.797V151.447ZM179.438 153.203C179.146 153.203 178.895 153.1 178.687 152.894C178.48 152.684 178.376 152.434 178.376 152.142C178.376 151.853 178.48 151.605 178.687 151.398C178.895 151.192 179.146 151.089 179.438 151.089C179.721 151.089 179.969 151.192 180.181 151.398C180.394 151.605 180.5 151.853 180.5 152.142C180.5 152.336 180.45 152.515 180.349 152.677C180.252 152.836 180.124 152.964 179.964 153.062C179.806 153.156 179.63 153.203 179.438 153.203Z" fill="#0068B6"/>
<path d="M16.6435 118.697C16.6844 117.694 16.3865 116.92 15.75 116.375C15.1217 115.829 14.171 115.556 12.898 115.556C12.033 115.556 11.2824 115.677 10.6459 115.917C10.0094 116.15 9.49943 116.475 9.11584 116.892C8.74047 117.301 8.50789 117.775 8.4181 118.312C8.32832 118.753 8.35688 119.138 8.50378 119.467C8.65889 119.796 8.89967 120.081 9.22597 120.322C9.56064 120.554 9.95637 120.759 10.4133 120.936C10.8703 121.104 11.3558 121.248 11.8698 121.369L14.0241 121.898C15.0769 122.139 16.0234 122.46 16.8638 122.861C17.7126 123.262 18.4224 123.755 18.9936 124.341C19.573 124.927 19.981 125.617 20.2177 126.411C20.4542 127.205 20.4869 128.116 20.3156 129.143C20.0544 130.651 19.4465 131.959 18.4919 133.066C17.5371 134.165 16.2844 135.019 14.734 135.629C13.1836 136.231 11.3884 136.532 9.34841 136.532C7.32463 136.532 5.61518 136.227 4.21987 135.617C2.8244 135.007 1.8084 134.105 1.17205 132.909C0.543578 131.706 0.355976 130.218 0.608907 128.445H5.73762C5.64784 129.271 5.77028 129.961 6.10479 130.515C6.4475 131.06 6.95746 131.473 7.63485 131.754C8.31207 132.027 9.10763 132.163 10.0217 132.163C10.9274 132.163 11.7312 132.035 12.433 131.778C13.1429 131.521 13.7182 131.165 14.1587 130.707C14.5994 130.25 14.8688 129.724 14.9666 129.131C15.0646 128.577 14.9789 128.112 14.7095 127.735C14.4404 127.358 14.0079 127.037 13.4121 126.772C12.8246 126.499 12.0942 126.259 11.2212 126.05L8.60177 125.376C6.57799 124.871 5.04809 124.08 4.01175 123.005C2.9754 121.93 2.60412 120.482 2.89792 118.661C3.1589 117.169 3.79131 115.865 4.79499 114.75C5.80688 113.627 7.07992 112.756 8.61408 112.139C10.1563 111.513 11.8413 111.2 13.6693 111.2C15.5297 111.2 17.1005 111.517 18.3816 112.151C19.6628 112.776 20.5971 113.651 21.1847 114.774C21.7721 115.897 21.9517 117.205 21.7232 118.697H16.6435ZM26.4417 136.183H20.7623L33.5778 111.537H40.4078L44.8877 136.183H39.2083L36.1605 117.169H35.9646L26.4417 136.183ZM27.7392 126.495H41.1544L40.4445 130.563H27.0293L27.7392 126.495ZM73.0339 111.537L68.8715 136.183H64.2938L56.0324 120.671H55.8364L53.2048 136.183H47.9049L52.0666 111.537H56.7178L64.9438 127.037H65.1506L67.7587 111.537H73.0339ZM83.7011 115.833L84.4364 111.537H105.024L104.288 115.833H96.6152L93.188 136.183H87.9489L91.376 115.833H83.7011ZM123.898 111.537H129.198L126.506 127.542C126.204 129.339 125.506 130.912 124.411 132.26C123.318 133.607 121.928 134.658 120.237 135.412C118.548 136.159 116.664 136.532 114.583 136.532C112.502 136.532 110.747 136.159 109.319 135.412C107.891 134.658 106.859 133.607 106.224 132.26C105.587 130.912 105.419 129.339 105.721 127.542L108.415 111.537H113.715L111.082 127.097C110.936 128.036 111.01 128.87 111.302 129.6C111.604 130.33 112.103 130.904 112.796 131.321C113.49 131.738 114.347 131.947 115.366 131.947C116.395 131.947 117.326 131.738 118.158 131.321C118.998 130.904 119.688 130.33 120.226 129.6C120.772 128.87 121.119 128.036 121.267 127.097L123.898 111.537ZM154.525 111.537L150.364 136.183H145.787L137.524 120.671H137.329L134.696 136.183H129.396L133.559 111.537H138.21L146.435 127.037H146.643L149.25 111.537H154.525ZM174.18 119.503C174.115 118.918 173.977 118.4 173.765 117.951C173.56 117.494 173.279 117.109 172.92 116.796C172.56 116.475 172.124 116.23 171.61 116.062C171.096 115.893 170.5 115.809 169.822 115.809C168.542 115.809 167.342 116.122 166.225 116.748C165.115 117.373 164.168 118.284 163.385 119.479C162.601 120.667 162.067 122.119 161.782 123.836C161.488 125.553 161.488 127.013 161.782 128.216C162.084 129.419 162.65 130.338 163.482 130.972C164.322 131.598 165.404 131.911 166.727 131.911C167.925 131.911 169.003 131.702 169.957 131.285C170.912 130.86 171.692 130.262 172.296 129.492C172.908 128.722 173.299 127.811 173.471 126.76L174.523 126.916H168.073L168.734 122.993H179.224L178.684 126.098C178.334 128.264 177.563 130.125 176.371 131.682C175.18 133.238 173.694 134.434 171.915 135.268C170.146 136.102 168.202 136.52 166.09 136.52C163.74 136.52 161.76 136.01 160.153 134.991C158.553 133.964 157.416 132.508 156.738 130.623C156.07 128.73 155.951 126.483 156.383 123.884C156.718 121.886 157.314 120.105 158.171 118.541C159.036 116.968 160.093 115.637 161.34 114.545C162.589 113.454 163.973 112.624 165.489 112.054C167.016 111.485 168.603 111.2 170.251 111.2C171.671 111.2 172.956 111.405 174.106 111.814C175.265 112.215 176.257 112.784 177.081 113.523C177.914 114.261 178.541 115.139 178.966 116.158C179.398 117.169 179.598 118.284 179.565 119.503H174.18Z" fill="#0068B6"/>
<path d="M106.557 38.0911L80.7552 28.8182C80.7552 28.8182 78.7003 27.703 79.1699 23.3012C79.1699 23.3012 79.6396 20.7774 82.3108 19.9851H104.649V15.5834H82.3108C82.3108 15.5834 74.2972 16.5224 73.8276 24.2402C73.8276 24.2402 72.712 31.9581 79.9625 34.4523L105.618 43.5788C105.618 43.5788 109.874 45.633 108.289 50.3281C108.289 50.3281 107.027 52.3823 104.679 52.529H81.6944V42.2876H76.8217V52.6757H59.3557V57.87H76.8217V78.4702C76.8217 78.4702 78.4066 85.2488 83.2793 86.1881H107.497V81.3167H85.9508C85.9508 81.3167 81.6944 81.3167 81.6944 76.739V57.87H104.679C104.679 57.87 113.162 57.87 114.101 48.7436V46.073C114.101 46.073 112.692 39.6171 106.557 38.0618" fill="#0068B6"/>
<path d="M87.9766 0.5L1.14697 51.003V53.8202L87.0373 104.001H93.6419L179.885 53.8202V50.6804L93.6419 0.5H87.9766Z" stroke="#E50012"/>
<path d="M180.5 0.5H0.5V104.001H180.5V0.5Z" stroke="#E50012"/>
</svg>
