<svg width="88" height="67" viewBox="0 0 88 67" fill="none" xmlns="http://www.w3.org/2000/svg">
<path d="M15.666 10.186C16.7479 10.186 17.625 9.30893 17.625 8.227C17.625 7.14507 16.7479 6.268 15.666 6.268C14.5841 6.268 13.707 7.14507 13.707 8.227C13.707 9.30893 14.5841 10.186 15.666 10.186Z" fill="#27348E"/>
<path d="M13.706 11.909C13.706 10.829 14.582 9.945 15.665 9.945C16.747 9.945 17.624 10.829 17.624 11.909C17.624 12.99 16.746 13.869 15.665 13.869C14.582 13.869 13.706 12.99 13.706 11.909Z" fill="#27348E"/>
<path d="M17.625 8.227H13.706V11.91H17.625V8.227Z" fill="#27348E"/>
<path d="M41.731 6.265H15.666V13.869H41.731V6.265Z" fill="#27348E"/>
<path d="M48.308 25.437C49.3899 25.437 50.267 24.5599 50.267 23.478C50.267 22.3961 49.3899 21.519 48.308 21.519C47.2261 21.519 46.349 22.3961 46.349 23.478C46.349 24.5599 47.2261 25.437 48.308 25.437Z" fill="#27348E"/>
<path d="M48.308 29.116C49.3899 29.116 50.267 28.2389 50.267 27.157C50.267 26.0751 49.3899 25.198 48.308 25.198C47.2261 25.198 46.349 26.0751 46.349 27.157C46.349 28.2389 47.2261 29.116 48.308 29.116Z" fill="#27348E"/>
<path d="M50.267 23.478H46.349V27.158H50.267V23.478Z" fill="#27348E"/>
<path d="M67.315 21.517H48.309V29.119H67.315V21.517Z" fill="#27348E"/>
<path d="M72.069 29.117C73.1515 29.117 74.029 28.2395 74.029 27.157C74.029 26.0745 73.1515 25.197 72.069 25.197C70.9865 25.197 70.109 26.0745 70.109 27.157C70.109 28.2395 70.9865 29.117 72.069 29.117Z" fill="#27348E"/>
<path d="M72.069 25.438C73.1515 25.438 74.029 24.5605 74.029 23.478C74.029 22.3955 73.1515 21.518 72.069 21.518C70.9865 21.518 70.109 22.3955 70.109 23.478C70.109 24.5605 70.9865 25.438 72.069 25.438Z" fill="#27348E"/>
<path d="M74.029 23.478H70.109V27.158H74.029V23.478Z" fill="#27348E"/>
<path d="M72.07 21.517H53.067V29.119H72.07V21.517Z" fill="#27348E"/>
<path d="M46.349 38.465C46.349 37.383 47.227 36.506 48.308 36.506C49.39 36.506 50.266 37.383 50.266 38.465C50.266 39.551 49.39 40.423 48.308 40.423C47.227 40.423 46.349 39.551 46.349 38.465Z" fill="#27348E"/>
<path d="M48.308 44.105C49.3899 44.105 50.267 43.2279 50.267 42.146C50.267 41.0641 49.3899 40.187 48.308 40.187C47.2261 40.187 46.349 41.0641 46.349 42.146C46.349 43.2279 47.2261 44.105 48.308 44.105Z" fill="#27348E"/>
<path d="M50.267 38.465H46.349V42.146H50.267V38.465Z" fill="#27348E"/>
<path d="M67.315 36.506H48.309V44.107H67.315V36.506Z" fill="#27348E"/>
<path d="M74.029 42.146C74.029 43.228 73.15 44.107 72.07 44.107C70.988 44.107 70.109 43.228 70.109 42.146C70.109 41.068 70.988 40.191 72.07 40.191C73.15 40.188 74.029 41.067 74.029 42.146Z" fill="#27348E"/>
<path d="M74.029 38.465C74.029 39.551 73.15 40.423 72.07 40.423C70.988 40.423 70.109 39.551 70.109 38.465C70.109 37.383 70.988 36.506 72.07 36.506C73.15 36.506 74.029 37.383 74.029 38.465Z" fill="#27348E"/>
<path d="M74.029 38.465H70.109V42.146H74.029V38.465Z" fill="#27348E"/>
<path d="M72.07 36.506H53.067V44.107H72.07V36.506Z" fill="#27348E"/>
<path d="M18.831 28.798C19.7925 28.798 20.572 28.0185 20.572 27.057C20.572 26.0955 19.7925 25.316 18.831 25.316C17.8695 25.316 17.09 26.0955 17.09 27.057C17.09 28.0185 17.8695 28.798 18.831 28.798Z" fill="#27348E"/>
<path d="M15.564 28.798C16.5255 28.798 17.305 28.0185 17.305 27.057C17.305 26.0955 16.5255 25.316 15.564 25.316C14.6025 25.316 13.823 26.0955 13.823 27.057C13.823 28.0185 14.6025 28.798 15.564 28.798Z" fill="#27348E"/>
<path d="M15.564 40.627C16.524 40.627 17.303 41.41 17.303 42.366C17.303 43.326 16.525 44.106 15.564 44.106C14.603 44.106 13.824 43.326 13.824 42.366C13.824 41.41 14.604 40.627 15.564 40.627Z" fill="#27348E"/>
<path d="M18.831 25.315H15.564V28.797H18.831V25.315Z" fill="#27348E"/>
<path d="M20.572 27.059H13.824V42.367H20.572V27.059Z" fill="#27348E"/>
<path d="M43.886 11.919H35.908V42.095H43.886V11.919Z" fill="#27348E"/>
<path d="M54.259 25.435H46.349V42.095H54.259V25.435Z" fill="#27348E"/>
<path d="M72.069 13.869C73.1515 13.869 74.029 12.9915 74.029 11.909C74.029 10.8265 73.1515 9.949 72.069 9.949C70.9865 9.949 70.109 10.8265 70.109 11.909C70.109 12.9915 70.9865 13.869 72.069 13.869Z" fill="#27348E"/>
<path d="M74.029 8.227C74.029 9.31 73.15 10.185 72.07 10.185C70.988 10.185 70.109 9.31 70.109 8.227C70.109 7.142 70.988 6.265 72.07 6.265C73.15 6.265 74.029 7.142 74.029 8.227Z" fill="#27348E"/>
<path d="M74.029 8.227H70.109V11.91H74.029V8.227Z" fill="#27348E"/>
<path d="M72.071 6.265H39.728V13.869H72.071V6.265Z" fill="#27348E"/>
<path d="M41.908 44.107C43.0004 44.107 43.886 43.2214 43.886 42.129C43.886 41.0366 43.0004 40.151 41.908 40.151C40.8156 40.151 39.93 41.0366 39.93 42.129C39.93 43.2214 40.8156 44.107 41.908 44.107Z" fill="#27348E"/>
<path d="M43.885 38.415H39.93V42.129H43.885V38.415Z" fill="#27348E"/>
<path d="M41.907 36.437H15.243V44.107H41.907V36.437Z" fill="#27348E"/>
<path d="M20.572 33.881C20.572 33.881 20.608 36.437 22.482 36.437L21.965 38.15H19.445L18.701 33.881H20.572Z" fill="#27348E"/>
<path d="M35.929 33.881C35.929 33.881 35.893 36.437 34.021 36.437L34.537 38.15H37.057L37.799 33.881H35.929Z" fill="#27348E"/>
<path d="M54.254 31.718C54.254 31.718 54.487 29.118 57.039 29.118L56.62 27.002L50.934 28.715L53.067 32.3L54.254 31.718Z" fill="#27348E"/>
<path d="M54.254 33.899C54.254 33.899 54.487 36.5 57.039 36.5L56.62 38.612L50.934 36.903L53.067 33.318L54.254 33.899Z" fill="#27348E"/>
<path d="M87.726 66.666H0V0H87.725L87.726 66.666ZM85.614 2.672H2.282V47.89H85.614V2.672Z" fill="#27348E"/>
<path d="M2.605 52.438C3.1015 52.438 3.504 52.0355 3.504 51.539C3.504 51.0425 3.1015 50.64 2.605 50.64C2.1085 50.64 1.706 51.0425 1.706 51.539C1.706 52.0355 2.1085 52.438 2.605 52.438Z" fill="white"/>
<path d="M1.705 53.228C1.705 52.734 2.108 52.331 2.602 52.331C3.101 52.331 3.503 52.734 3.503 53.228C3.503 53.726 3.1 54.128 2.602 54.128C2.108 54.128 1.705 53.726 1.705 53.228Z" fill="white"/>
<path d="M3.504 51.539H1.705V53.227H3.504V51.539Z" fill="white"/>
<path d="M6.741 50.64H2.603V54.128H6.741V50.64Z" fill="white"/>
<path d="M11.419 53.228C11.419 53.726 11.017 54.128 10.52 54.128C10.024 54.128 9.62 53.726 9.62 53.228C9.62 52.734 10.024 52.331 10.52 52.331C11.017 52.329 11.419 52.731 11.419 53.228Z" fill="white"/>
<path d="M11.419 51.539C11.419 52.034 11.017 52.435 10.52 52.435C10.024 52.435 9.62 52.035 9.62 51.539C9.62 51.04 10.024 50.64 10.52 50.64C11.017 50.64 11.419 51.04 11.419 51.539Z" fill="white"/>
<path d="M11.419 51.539H9.62V53.227H11.419V51.539Z" fill="white"/>
<path d="M10.52 50.64H6.383V54.128H10.52V50.64Z" fill="white"/>
<path d="M65.424 53.228C65.424 53.726 65.021 54.128 64.525 54.128C64.029 54.128 63.624 53.726 63.624 53.228C63.624 52.734 64.029 52.331 64.525 52.331C65.021 52.331 65.424 52.731 65.424 53.228Z" fill="white"/>
<path d="M65.424 51.539C65.424 52.034 65.021 52.435 64.525 52.435C64.029 52.435 63.624 52.035 63.624 51.539C63.624 51.04 64.029 50.64 64.525 50.64C65.021 50.64 65.424 51.04 65.424 51.539Z" fill="white"/>
<path d="M65.425 51.539H63.624V53.227H65.425V51.539Z" fill="white"/>
<path d="M64.525 50.64H60.389V54.128H64.525V50.64Z" fill="white"/>
<path d="M64.524 64.404C65.0211 64.404 65.424 64.0051 65.424 63.513C65.424 63.0209 65.0211 62.622 64.524 62.622C64.0269 62.622 63.624 63.0209 63.624 63.513C63.624 64.0051 64.0269 64.404 64.524 64.404Z" fill="white"/>
<path d="M65.424 61.845C65.424 62.332 65.021 62.732 64.525 62.732C64.029 62.732 63.624 62.333 63.624 61.845C63.624 61.349 64.029 60.952 64.525 60.952C65.021 60.952 65.424 61.349 65.424 61.845Z" fill="white"/>
<path d="M65.425 61.845H63.624V63.513H65.425V61.845Z" fill="white"/>
<path d="M64.525 60.952H60.389V64.403H64.525V60.952Z" fill="white"/>
<path d="M64.069 58.427C64.069 58.927 63.664 59.329 63.169 59.329C62.671 59.329 62.268 58.927 62.268 58.427C62.268 57.933 62.671 57.529 63.169 57.529C63.664 57.528 64.069 57.933 64.069 58.427Z" fill="white"/>
<path d="M63.168 57.639C63.6656 57.639 64.069 57.2356 64.069 56.738C64.069 56.2404 63.6656 55.837 63.168 55.837C62.6704 55.837 62.267 56.2404 62.267 56.738C62.267 57.2356 62.6704 57.639 63.168 57.639Z" fill="white"/>
<path d="M64.069 56.737H62.268V58.426H64.069V56.737Z" fill="white"/>
<path d="M63.169 55.839H57.752V59.329H63.169V55.839Z" fill="white"/>
<path d="M35.924 58.372C35.924 58.873 35.52 59.274 35.024 59.274C34.529 59.274 34.124 58.873 34.124 58.372C34.124 57.879 34.529 57.477 35.024 57.477C35.52 57.478 35.924 57.879 35.924 58.372Z" fill="white"/>
<path d="M35.924 56.685C35.924 57.183 35.52 57.585 35.024 57.585C34.529 57.585 34.124 57.183 34.124 56.685C34.124 56.191 34.529 55.786 35.024 55.786C35.52 55.784 35.924 56.188 35.924 56.685Z" fill="white"/>
<path d="M35.924 56.685H34.124V58.373H35.924V56.685Z" fill="white"/>
<path d="M35.024 55.784H30.888V59.274H35.024V55.784Z" fill="white"/>
<path d="M44.841 53.147C44.841 53.668 44.421 54.084 43.904 54.084C43.387 54.084 42.968 53.668 42.968 53.147C42.968 52.635 43.386 52.216 43.904 52.216C44.422 52.216 44.841 52.636 44.841 53.147Z" fill="white"/>
<path d="M44.841 51.394C44.841 51.912 44.421 52.331 43.904 52.331C43.387 52.331 42.968 51.912 42.968 51.394C42.968 50.88 43.386 50.462 43.904 50.462C44.422 50.462 44.841 50.88 44.841 51.394Z" fill="white"/>
<path d="M44.841 51.394H42.968V53.148H44.841V51.394Z" fill="white"/>
<path d="M43.904 50.462H39.605V54.084H43.904V50.462Z" fill="white"/>
<path d="M44.841 63.569C44.841 64.09 44.421 64.506 43.904 64.506C43.387 64.506 42.968 64.091 42.968 63.569C42.968 63.055 43.386 62.639 43.904 62.639C44.422 62.639 44.841 63.058 44.841 63.569Z" fill="white"/>
<path d="M44.841 61.817C44.841 62.332 44.421 62.754 43.904 62.754C43.387 62.754 42.968 62.332 42.968 61.817C42.968 61.299 43.386 60.88 43.904 60.88C44.422 60.88 44.841 61.302 44.841 61.817Z" fill="white"/>
<path d="M44.841 61.817H42.968V63.569H44.841V61.817Z" fill="white"/>
<path d="M43.904 60.882H39.605V64.506H43.904V60.882Z" fill="white"/>
<path d="M29.589 57.584C30.0861 57.584 30.489 57.1811 30.489 56.684C30.489 56.1869 30.0861 55.784 29.589 55.784C29.0919 55.784 28.689 56.1869 28.689 56.684C28.689 57.1811 29.0919 57.584 29.589 57.584Z" fill="white"/>
<path d="M28.688 58.372C28.688 57.879 29.092 57.472 29.587 57.472C30.084 57.472 30.488 57.879 30.488 58.372C30.488 58.868 30.083 59.274 29.587 59.274C29.092 59.274 28.688 58.868 28.688 58.372Z" fill="white"/>
<path d="M30.489 56.685H28.688V58.373H30.489V56.685Z" fill="white"/>
<path d="M33.724 55.784H29.588V59.274H33.724V55.784Z" fill="white"/>
<path d="M8.452 63.455C8.452 63.95 8.049 64.356 7.553 64.356C7.056 64.356 6.653 63.95 6.653 63.455C6.653 62.963 7.056 62.558 7.553 62.558C8.049 62.558 8.452 62.963 8.452 63.455Z" fill="white"/>
<path d="M7.552 62.666C8.04906 62.666 8.452 62.2631 8.452 61.766C8.452 61.2689 8.04906 60.866 7.552 60.866C7.05494 60.866 6.652 61.2689 6.652 61.766C6.652 62.2631 7.05494 62.666 7.552 62.666Z" fill="white"/>
<path d="M8.452 61.767H6.653V63.455H8.452V61.767Z" fill="white"/>
<path d="M7.553 61.209H3.417V64.356H7.553V61.209Z" fill="white"/>
<path d="M18.078 63.562C18.078 64.058 17.653 64.463 17.13 64.463C16.606 64.463 16.182 64.058 16.182 63.562C16.182 63.074 16.606 62.668 17.13 62.668C17.653 62.669 18.078 63.073 18.078 63.562Z" fill="white"/>
<path d="M17.13 62.775C17.6536 62.775 18.078 62.3747 18.078 61.881C18.078 61.3873 17.6536 60.987 17.13 60.987C16.6064 60.987 16.182 61.3873 16.182 61.881C16.182 62.3747 16.6064 62.775 17.13 62.775Z" fill="white"/>
<path d="M18.078 61.881H16.182V63.564H18.078V61.881Z" fill="white"/>
<path d="M17.13 60.981H12.775V64.462H17.13V60.981Z" fill="white"/>
<path d="M11.827 61.88C11.827 61.386 12.25 60.982 12.775 60.982C13.298 60.982 13.723 61.386 13.723 61.88C13.723 62.372 13.298 62.775 12.775 62.775C12.25 62.774 11.827 62.372 11.827 61.88Z" fill="white"/>
<path d="M11.827 63.562C11.827 63.068 12.25 62.668 12.775 62.668C13.298 62.668 13.723 63.067 13.723 63.562C13.723 64.058 13.298 64.463 12.775 64.463C12.25 64.464 11.827 64.058 11.827 63.562Z" fill="white"/>
<path d="M13.723 61.88H11.827V63.564H13.723V61.88Z" fill="white"/>
<path d="M17.13 60.981H12.775V64.462H17.13V60.981Z" fill="white"/>
<path d="M18.078 53.172C18.078 53.668 17.653 54.068 17.13 54.068C16.606 54.068 16.182 53.67 16.182 53.172C16.182 52.681 16.606 52.275 17.13 52.275C17.653 52.272 18.078 52.681 18.078 53.172Z" fill="white"/>
<path d="M18.078 51.49C18.078 51.979 17.653 52.382 17.13 52.382C16.606 52.382 16.182 51.982 16.182 51.49C16.182 50.993 16.606 50.591 17.13 50.591C17.653 50.591 18.078 50.993 18.078 51.49Z" fill="white"/>
<path d="M18.078 51.49H16.182V53.172H18.078V51.49Z" fill="white"/>
<path d="M17.13 50.591H12.775V54.068H17.13V50.591Z" fill="white"/>
<path d="M11.827 51.487C11.827 50.993 12.25 50.587 12.775 50.587C13.298 50.587 13.723 50.993 13.723 51.487C13.723 51.979 13.298 52.382 12.775 52.382C12.25 52.382 11.827 51.979 11.827 51.487Z" fill="white"/>
<path d="M12.775 54.069C13.2986 54.069 13.723 53.6674 13.723 53.172C13.723 52.6766 13.2986 52.275 12.775 52.275C12.2514 52.275 11.827 52.6766 11.827 53.172C11.827 53.6674 12.2514 54.069 12.775 54.069Z" fill="white"/>
<path d="M13.723 51.487H11.827V53.172H13.723V51.487Z" fill="white"/>
<path d="M17.13 50.587H12.775V54.066H17.13V50.587Z" fill="white"/>
<path d="M19.297 64.354C18.863 64.354 18.509 63.985 18.509 63.528C18.509 63.067 18.863 62.698 19.297 62.698C19.727 62.698 20.081 63.067 20.081 63.528C20.081 63.985 19.727 64.354 19.297 64.354Z" fill="white"/>
<path d="M20.771 64.356C21.204 64.356 21.555 63.9848 21.555 63.527C21.555 63.0692 21.204 62.698 20.771 62.698C20.338 62.698 19.987 63.0692 19.987 63.527C19.987 63.9848 20.338 64.356 20.771 64.356Z" fill="white"/>
<path d="M20.771 62.698H19.297V64.354H20.771V62.698Z" fill="white"/>
<path d="M21.557 59.707H18.509V63.528H21.557V59.707Z" fill="white"/>
<path d="M20.771 50.542C21.208 50.542 21.558 50.912 21.558 51.373C21.558 51.831 21.208 52.207 20.771 52.207C20.341 52.207 19.987 51.831 19.987 51.373C19.986 50.912 20.341 50.542 20.771 50.542Z" fill="white"/>
<path d="M19.297 52.208C19.73 52.208 20.081 51.8351 20.081 51.375C20.081 50.9149 19.73 50.542 19.297 50.542C18.864 50.542 18.513 50.9149 18.513 51.375C18.513 51.8351 18.864 52.208 19.297 52.208Z" fill="white"/>
<path d="M20.771 50.542H19.297V52.207H20.771V50.542Z" fill="white"/>
<path d="M21.56 51.373H18.511V60.227H21.56V51.373Z" fill="white"/>
<path d="M25.82 64.356C26.2552 64.356 26.608 63.9848 26.608 63.527C26.608 63.0692 26.2552 62.698 25.82 62.698C25.3848 62.698 25.032 63.0692 25.032 63.527C25.032 63.9848 25.3848 64.356 25.82 64.356Z" fill="white"/>
<path d="M27.295 64.356C27.728 64.356 28.079 63.9848 28.079 63.527C28.079 63.0692 27.728 62.698 27.295 62.698C26.862 62.698 26.511 63.0692 26.511 63.527C26.511 63.9848 26.862 64.356 27.295 64.356Z" fill="white"/>
<path d="M27.296 62.698H25.82V64.354H27.296V62.698Z" fill="white"/>
<path d="M28.083 59.707H25.032V63.528H28.083V59.707Z" fill="white"/>
<path d="M27.295 50.542C27.728 50.542 28.083 50.912 28.083 51.373C28.083 51.831 27.728 52.207 27.295 52.207C26.863 52.207 26.511 51.831 26.511 51.373C26.511 50.912 26.863 50.542 27.295 50.542Z" fill="white"/>
<path d="M25.822 50.542C26.252 50.542 26.606 50.912 26.606 51.373C26.606 51.831 26.252 52.207 25.822 52.207C25.385 52.207 25.034 51.831 25.034 51.373C25.034 50.912 25.386 50.542 25.822 50.542Z" fill="white"/>
<path d="M27.295 50.542H25.822V52.207H27.295V50.542Z" fill="white"/>
<path d="M28.083 51.373H25.034V60.227H28.083V51.373Z" fill="white"/>
<path d="M2.605 62.665C3.1015 62.665 3.504 62.2625 3.504 61.766C3.504 61.2695 3.1015 60.867 2.605 60.867C2.1085 60.867 1.706 61.2695 1.706 61.766C1.706 62.2625 2.1085 62.665 2.605 62.665Z" fill="white"/>
<path d="M2.605 64.354C3.1015 64.354 3.504 63.9515 3.504 63.455C3.504 62.9585 3.1015 62.556 2.605 62.556C2.1085 62.556 1.706 62.9585 1.706 63.455C1.706 63.9515 2.1085 64.354 2.605 64.354Z" fill="white"/>
<path d="M3.504 61.767H1.705V63.455H3.504V61.767Z" fill="white"/>
<path d="M6.741 61.642H2.603V64.357H6.741V61.642Z" fill="white"/>
<path d="M2.918 61.476C3.58406 61.476 4.124 60.9361 4.124 60.27C4.124 59.6039 3.58406 59.064 2.918 59.064C2.25194 59.064 1.712 59.6039 1.712 60.27C1.712 60.9361 2.25194 61.476 2.918 61.476Z" fill="white"/>
<path d="M8.452 50.64H4.991V61.855H8.452V50.64Z" fill="white"/>
<path d="M4.128 60.271H1.705V63.504H4.128V60.271Z" fill="white"/>
<path d="M4.128 60.546C4.128 60.546 4.075 61.209 4.528 61.209C5.028 61.209 4.99 60.546 4.99 60.546L5.237 60.867V62.239L2.993 61.852C2.993 61.852 3.284 61.063 3.332 61.063C3.379 61.063 4.128 60.546 4.128 60.546Z" fill="white"/>
<path d="M16.623 53.392H13.167V63.564H16.623V53.392Z" fill="white"/>
<path d="M25.969 55.8H21.253V59.256H25.969V55.8Z" fill="white"/>
<path d="M46.296 64.356C46.7301 64.356 47.082 63.9848 47.082 63.527C47.082 63.0692 46.7301 62.698 46.296 62.698C45.8619 62.698 45.51 63.0692 45.51 63.527C45.51 63.9848 45.8619 64.356 46.296 64.356Z" fill="white"/>
<path d="M47.772 64.356C48.2055 64.356 48.557 63.9848 48.557 63.527C48.557 63.0692 48.2055 62.698 47.772 62.698C47.3385 62.698 46.987 63.0692 46.987 63.527C46.987 63.9848 47.3385 64.356 47.772 64.356Z" fill="white"/>
<path d="M47.772 62.698H46.296V64.354H47.772V62.698Z" fill="white"/>
<path d="M48.561 59.707H45.51V63.528H48.561V59.707Z" fill="white"/>
<path d="M47.773 50.542C48.208 50.542 48.561 50.912 48.561 51.373C48.561 51.831 48.208 52.207 47.773 52.207C47.342 52.207 46.987 51.831 46.987 51.373C46.987 50.912 47.342 50.542 47.773 50.542Z" fill="white"/>
<path d="M46.299 50.542C46.732 50.542 47.083 50.912 47.083 51.373C47.083 51.831 46.732 52.207 46.299 52.207C45.863 52.207 45.51 51.831 45.51 51.373C45.51 50.912 45.863 50.542 46.299 50.542Z" fill="white"/>
<path d="M47.773 50.542H46.299V52.207H47.773V50.542Z" fill="white"/>
<path d="M48.56 51.373H45.512V60.227H48.56V51.373Z" fill="white"/>
<path d="M52.823 64.354C52.388 64.354 52.033 63.985 52.033 63.528C52.033 63.067 52.388 62.698 52.823 62.698C53.254 62.698 53.607 63.067 53.607 63.528C53.607 63.985 53.254 64.354 52.823 64.354Z" fill="white"/>
<path d="M54.298 64.356C54.7315 64.356 55.083 63.9848 55.083 63.527C55.083 63.0692 54.7315 62.698 54.298 62.698C53.8645 62.698 53.513 63.0692 53.513 63.527C53.513 63.9848 53.8645 64.356 54.298 64.356Z" fill="white"/>
<path d="M54.298 62.698H52.823V64.354H54.298V62.698Z" fill="white"/>
<path d="M55.084 59.707H52.033V63.528H55.084V59.707Z" fill="white"/>
<path d="M54.298 52.208C54.7321 52.208 55.084 51.8351 55.084 51.375C55.084 50.9149 54.7321 50.542 54.298 50.542C53.8639 50.542 53.512 50.9149 53.512 51.375C53.512 51.8351 53.8639 52.208 54.298 52.208Z" fill="white"/>
<path d="M52.823 52.208C53.256 52.208 53.607 51.8351 53.607 51.375C53.607 50.9149 53.256 50.542 52.823 50.542C52.39 50.542 52.039 50.9149 52.039 51.375C52.039 51.8351 52.39 52.208 52.823 52.208Z" fill="white"/>
<path d="M54.298 50.542H52.823V52.207H54.298V50.542Z" fill="white"/>
<path d="M55.087 51.373H52.035V60.227H55.087V51.373Z" fill="white"/>
<path d="M66.911 64.354C66.423 64.354 66.033 63.985 66.033 63.528C66.033 63.067 66.423 62.698 66.911 62.698C67.39 62.698 67.784 63.067 67.784 63.528C67.784 63.985 67.39 64.354 66.911 64.354Z" fill="white"/>
<path d="M68.552 64.354C68.071 64.354 67.68 63.985 67.68 63.528C67.68 63.067 68.071 62.698 68.552 62.698C69.036 62.698 69.432 63.067 69.432 63.528C69.432 63.985 69.036 64.354 68.552 64.354Z" fill="white"/>
<path d="M68.552 62.698H66.911V64.354H68.552V62.698Z" fill="white"/>
<path d="M69.431 59.707H66.033V63.528H69.431V59.707Z" fill="white"/>
<path d="M68.556 52.208C69.0398 52.208 69.432 51.8351 69.432 51.375C69.432 50.9149 69.0398 50.542 68.556 50.542C68.0722 50.542 67.68 50.9149 67.68 51.375C67.68 51.8351 68.0722 52.208 68.556 52.208Z" fill="white"/>
<path d="M66.911 50.542C67.391 50.542 67.784 50.912 67.784 51.373C67.784 51.831 67.391 52.207 66.911 52.207C66.427 52.207 66.033 51.831 66.033 51.373C66.033 50.912 66.427 50.542 66.911 50.542Z" fill="white"/>
<path d="M68.556 50.542H66.911V52.207H68.556V50.542Z" fill="white"/>
<path d="M69.431 51.373H66.033V60.227H69.431V51.373Z" fill="white"/>
<path d="M73.014 64.356C73.4989 64.356 73.892 63.9848 73.892 63.527C73.892 63.0692 73.4989 62.698 73.014 62.698C72.5291 62.698 72.136 63.0692 72.136 63.527C72.136 63.9848 72.5291 64.356 73.014 64.356Z" fill="white"/>
<path d="M74.657 64.354C74.176 64.354 73.784 63.985 73.784 63.528C73.784 63.067 74.176 62.698 74.657 62.698C75.141 62.698 75.536 63.067 75.536 63.528C75.536 63.985 75.142 64.354 74.657 64.354Z" fill="white"/>
<path d="M74.658 62.698H73.014V64.354H74.658V62.698Z" fill="white"/>
<path d="M75.536 59.707H72.136V63.528H75.536V59.707Z" fill="white"/>
<path d="M74.66 52.208C75.1438 52.208 75.536 51.8351 75.536 51.375C75.536 50.9149 75.1438 50.542 74.66 50.542C74.1762 50.542 73.784 50.9149 73.784 51.375C73.784 51.8351 74.1762 52.208 74.66 52.208Z" fill="white"/>
<path d="M73.014 52.208C73.4967 52.208 73.888 51.8351 73.888 51.375C73.888 50.9149 73.4967 50.542 73.014 50.542C72.5313 50.542 72.14 50.9149 72.14 51.375C72.14 51.8351 72.5313 52.208 73.014 52.208Z" fill="white"/>
<path d="M74.66 50.542H73.014V52.207H74.66V50.542Z" fill="white"/>
<path d="M75.536 51.373H72.138V60.227H75.536V51.373Z" fill="white"/>
<path d="M52.972 55.8H48.256V59.256H52.972V55.8Z" fill="white"/>
<path d="M39.605 50.462H38.361C38.361 50.462 36.391 50.765 36.391 54.128C36.391 57.494 36.391 61.855 36.391 61.855C36.391 61.855 36.36 64.506 39.605 64.506C42.851 64.506 40.785 60.882 40.785 60.882H40.479C40.479 60.882 39.877 61.021 39.877 59.707C39.877 58.395 39.877 54.509 39.877 54.509C39.877 54.509 39.976 54.084 40.59 54.084C41.203 54.084 40.575 53.245 40.575 53.245L39.605 50.462Z" fill="white"/>
<path d="M85.829 53.147C85.829 53.668 85.41 54.084 84.893 54.084C84.374 54.084 83.956 53.668 83.956 53.147C83.956 52.635 84.374 52.216 84.893 52.216C85.41 52.218 85.829 52.636 85.829 53.147Z" fill="white"/>
<path d="M85.829 51.394C85.829 51.912 85.41 52.331 84.893 52.331C84.374 52.331 83.956 51.912 83.956 51.394C83.956 50.88 84.374 50.462 84.893 50.462C85.41 50.462 85.829 50.88 85.829 51.394Z" fill="white"/>
<path d="M85.829 51.394H83.957V53.148H85.829V51.394Z" fill="white"/>
<path d="M84.893 50.462H78.861V54.084H84.893V50.462Z" fill="white"/>
<path d="M81.077 56.741C81.077 56.221 81.495 55.807 82.012 55.807C82.528 55.807 82.947 56.221 82.947 56.741C82.947 57.254 82.528 57.677 82.012 57.677C81.495 57.677 81.077 57.254 81.077 56.741Z" fill="white"/>
<path d="M81.077 58.499C81.077 57.981 81.495 57.563 82.012 57.563C82.528 57.563 82.947 57.981 82.947 58.499C82.947 59.013 82.528 59.435 82.012 59.435C81.495 59.435 81.077 59.013 81.077 58.499Z" fill="white"/>
<path d="M82.946 56.741H81.077V58.499H82.946V56.741Z" fill="white"/>
<path d="M84.634 55.808H82.012V59.435H84.634V55.808Z" fill="white"/>
<path d="M84.952 55.802C85.436 55.802 85.829 56.224 85.829 56.74C85.829 57.256 85.436 57.678 84.952 57.678C84.473 57.678 84.083 57.256 84.083 56.74C84.083 56.224 84.473 55.802 84.952 55.802Z" fill="white"/>
<path d="M83.316 57.676C83.7976 57.676 84.188 57.2565 84.188 56.739C84.188 56.2215 83.7976 55.802 83.316 55.802C82.8344 55.802 82.444 56.2215 82.444 56.739C82.444 57.2565 82.8344 57.676 83.316 57.676Z" fill="white"/>
<path d="M84.952 55.802H83.316V57.677H84.952V55.802Z" fill="white"/>
<path d="M85.829 56.737H82.445V61.499H85.829V56.737Z" fill="white"/>
<path d="M79.105 60.882H83.404V64.506H79.558L79.105 60.882Z" fill="white"/>
<path d="M79.558 50.462H78.313C78.313 50.462 76.342 50.765 76.342 54.128C76.342 57.494 76.342 61.855 76.342 61.855C76.342 61.855 76.313 64.506 79.558 64.506C82.804 64.506 80.737 60.882 80.737 60.882H80.427C80.427 60.882 79.832 61.021 79.832 59.707C79.832 58.395 79.832 54.509 79.832 54.509C79.832 54.509 79.927 54.084 80.541 54.084C81.154 54.084 80.524 53.245 80.524 53.245L79.558 50.462Z" fill="white"/>
<path d="M55.601 51.472C55.601 51.015 55.975 50.64 56.432 50.64C56.893 50.64 57.264 51.015 57.264 51.472C57.264 51.927 56.893 52.3 56.432 52.3C55.975 52.3 55.601 51.927 55.601 51.472Z" fill="white"/>
<path d="M55.601 63.569C55.601 63.112 55.975 62.739 56.432 62.739C56.893 62.739 57.264 63.112 57.264 63.569C57.264 64.03 56.893 64.403 56.432 64.403C55.975 64.403 55.601 64.03 55.601 63.569Z" fill="white"/>
<path d="M59.257 51.472H55.601V63.57H59.257V51.472Z" fill="white"/>
<path d="M62.267 60.952H56.432V64.403H62.267V60.952Z" fill="white"/>
<path d="M61.326 50.64H56.432V54.128H61.326V50.64Z" fill="white"/>
<path d="M68.556 50.542H69.013C69.013 50.542 69.451 50.536 69.78 51.455C70.109 52.376 72.322 56.729 72.322 56.729L73.2 64.354C73.2 64.354 72.105 64.457 71.664 63.524C71.18 62.498 68.926 57.575 68.926 57.575L68.556 50.542Z" fill="white"/>
<path d="M85.829 61.499V62.099C85.829 62.099 86.005 64.506 83.404 64.506C80.801 64.506 82.303 63.31 82.303 63.31L83.404 60.384L85.829 61.499Z" fill="white"/>
<path d="M82.445 60.228C82.445 60.228 82.472 60.882 81.873 60.882V61.619L83.419 61.708L83.046 60.384L82.445 60.228Z" fill="white"/>
<path d="M82.11 59.435C82.11 59.435 82.445 59.457 82.445 59.781H83.046L82.807 58.996L82.144 59.052L82.11 59.435Z" fill="white"/>
</svg>
