<svg width="301" height="67" viewBox="0 0 301 67" fill="none" xmlns="http://www.w3.org/2000/svg">
<path d="M15.666 10.186C16.7479 10.186 17.625 9.30893 17.625 8.227C17.625 7.14507 16.7479 6.268 15.666 6.268C14.5841 6.268 13.707 7.14507 13.707 8.227C13.707 9.30893 14.5841 10.186 15.666 10.186Z" fill="#27348E"/>
<path d="M13.706 11.909C13.706 10.829 14.582 9.945 15.665 9.945C16.747 9.945 17.624 10.829 17.624 11.909C17.624 12.99 16.746 13.869 15.665 13.869C14.582 13.869 13.706 12.99 13.706 11.909Z" fill="#27348E"/>
<path d="M17.625 8.227H13.706V11.91H17.625V8.227Z" fill="#27348E"/>
<path d="M41.731 6.265H15.666V13.869H41.731V6.265Z" fill="#27348E"/>
<path d="M48.308 25.437C49.3899 25.437 50.267 24.5599 50.267 23.478C50.267 22.3961 49.3899 21.519 48.308 21.519C47.2261 21.519 46.349 22.3961 46.349 23.478C46.349 24.5599 47.2261 25.437 48.308 25.437Z" fill="#27348E"/>
<path d="M48.308 29.116C49.3899 29.116 50.267 28.2389 50.267 27.157C50.267 26.0751 49.3899 25.198 48.308 25.198C47.2261 25.198 46.349 26.0751 46.349 27.157C46.349 28.2389 47.2261 29.116 48.308 29.116Z" fill="#27348E"/>
<path d="M50.267 23.478H46.349V27.158H50.267V23.478Z" fill="#27348E"/>
<path d="M67.315 21.517H48.309V29.119H67.315V21.517Z" fill="#27348E"/>
<path d="M72.069 29.117C73.1515 29.117 74.029 28.2395 74.029 27.157C74.029 26.0745 73.1515 25.197 72.069 25.197C70.9865 25.197 70.109 26.0745 70.109 27.157C70.109 28.2395 70.9865 29.117 72.069 29.117Z" fill="#27348E"/>
<path d="M72.069 25.438C73.1515 25.438 74.029 24.5605 74.029 23.478C74.029 22.3955 73.1515 21.518 72.069 21.518C70.9865 21.518 70.109 22.3955 70.109 23.478C70.109 24.5605 70.9865 25.438 72.069 25.438Z" fill="#27348E"/>
<path d="M74.029 23.478H70.109V27.158H74.029V23.478Z" fill="#27348E"/>
<path d="M72.07 21.517H53.067V29.119H72.07V21.517Z" fill="#27348E"/>
<path d="M46.349 38.465C46.349 37.383 47.227 36.506 48.308 36.506C49.39 36.506 50.266 37.383 50.266 38.465C50.266 39.551 49.39 40.423 48.308 40.423C47.227 40.423 46.349 39.551 46.349 38.465Z" fill="#27348E"/>
<path d="M48.308 44.105C49.3899 44.105 50.267 43.2279 50.267 42.146C50.267 41.0641 49.3899 40.187 48.308 40.187C47.2261 40.187 46.349 41.0641 46.349 42.146C46.349 43.2279 47.2261 44.105 48.308 44.105Z" fill="#27348E"/>
<path d="M50.267 38.465H46.349V42.146H50.267V38.465Z" fill="#27348E"/>
<path d="M67.315 36.506H48.309V44.107H67.315V36.506Z" fill="#27348E"/>
<path d="M74.029 42.146C74.029 43.228 73.15 44.107 72.07 44.107C70.988 44.107 70.109 43.228 70.109 42.146C70.109 41.068 70.988 40.191 72.07 40.191C73.15 40.188 74.029 41.067 74.029 42.146Z" fill="#27348E"/>
<path d="M74.029 38.465C74.029 39.551 73.15 40.423 72.07 40.423C70.988 40.423 70.109 39.551 70.109 38.465C70.109 37.383 70.988 36.506 72.07 36.506C73.15 36.506 74.029 37.383 74.029 38.465Z" fill="#27348E"/>
<path d="M74.029 38.465H70.109V42.146H74.029V38.465Z" fill="#27348E"/>
<path d="M72.07 36.506H53.067V44.107H72.07V36.506Z" fill="#27348E"/>
<path d="M18.831 28.798C19.7925 28.798 20.572 28.0185 20.572 27.057C20.572 26.0955 19.7925 25.316 18.831 25.316C17.8695 25.316 17.09 26.0955 17.09 27.057C17.09 28.0185 17.8695 28.798 18.831 28.798Z" fill="#27348E"/>
<path d="M15.564 28.798C16.5255 28.798 17.305 28.0185 17.305 27.057C17.305 26.0955 16.5255 25.316 15.564 25.316C14.6025 25.316 13.823 26.0955 13.823 27.057C13.823 28.0185 14.6025 28.798 15.564 28.798Z" fill="#27348E"/>
<path d="M15.564 40.627C16.524 40.627 17.303 41.41 17.303 42.366C17.303 43.326 16.525 44.106 15.564 44.106C14.603 44.106 13.824 43.326 13.824 42.366C13.824 41.41 14.604 40.627 15.564 40.627Z" fill="#27348E"/>
<path d="M18.831 25.315H15.564V28.797H18.831V25.315Z" fill="#27348E"/>
<path d="M20.572 27.059H13.824V42.367H20.572V27.059Z" fill="#27348E"/>
<path d="M43.886 11.919H35.908V42.095H43.886V11.919Z" fill="#27348E"/>
<path d="M54.259 25.435H46.349V42.095H54.259V25.435Z" fill="#27348E"/>
<path d="M72.069 13.869C73.1515 13.869 74.029 12.9915 74.029 11.909C74.029 10.8265 73.1515 9.949 72.069 9.949C70.9865 9.949 70.109 10.8265 70.109 11.909C70.109 12.9915 70.9865 13.869 72.069 13.869Z" fill="#27348E"/>
<path d="M74.029 8.227C74.029 9.31 73.15 10.185 72.07 10.185C70.988 10.185 70.109 9.31 70.109 8.227C70.109 7.142 70.988 6.265 72.07 6.265C73.15 6.265 74.029 7.142 74.029 8.227Z" fill="#27348E"/>
<path d="M74.029 8.227H70.109V11.91H74.029V8.227Z" fill="#27348E"/>
<path d="M72.071 6.265H39.728V13.869H72.071V6.265Z" fill="#27348E"/>
<path d="M41.908 44.107C43.0004 44.107 43.886 43.2214 43.886 42.129C43.886 41.0366 43.0004 40.151 41.908 40.151C40.8156 40.151 39.93 41.0366 39.93 42.129C39.93 43.2214 40.8156 44.107 41.908 44.107Z" fill="#27348E"/>
<path d="M43.885 38.415H39.93V42.129H43.885V38.415Z" fill="#27348E"/>
<path d="M41.907 36.437H15.243V44.107H41.907V36.437Z" fill="#27348E"/>
<path d="M20.572 33.881C20.572 33.881 20.608 36.437 22.482 36.437L21.965 38.15H19.445L18.701 33.881H20.572Z" fill="#27348E"/>
<path d="M35.929 33.881C35.929 33.881 35.893 36.437 34.021 36.437L34.537 38.15H37.057L37.799 33.881H35.929Z" fill="#27348E"/>
<path d="M54.254 31.718C54.254 31.718 54.487 29.118 57.039 29.118L56.62 27.002L50.934 28.715L53.067 32.3L54.254 31.718Z" fill="#27348E"/>
<path d="M54.254 33.899C54.254 33.899 54.487 36.5 57.039 36.5L56.62 38.612L50.934 36.903L53.067 33.318L54.254 33.899Z" fill="#27348E"/>
<path d="M87.726 66.666H0V0H87.725L87.726 66.666ZM85.614 2.672H2.282V47.89H85.614V2.672Z" fill="#27348E"/>
<path d="M2.60499 52.438C3.1015 52.438 3.50399 52.0355 3.50399 51.539C3.50399 51.0425 3.1015 50.64 2.60499 50.64C2.10849 50.64 1.70599 51.0425 1.70599 51.539C1.70599 52.0355 2.10849 52.438 2.60499 52.438Z" fill="white"/>
<path d="M1.705 53.228C1.705 52.734 2.108 52.331 2.602 52.331C3.101 52.331 3.503 52.734 3.503 53.228C3.503 53.726 3.1 54.128 2.602 54.128C2.108 54.128 1.705 53.726 1.705 53.228Z" fill="white"/>
<path d="M3.504 51.539H1.705V53.227H3.504V51.539Z" fill="white"/>
<path d="M6.741 50.64H2.603V54.128H6.741V50.64Z" fill="white"/>
<path d="M11.419 53.228C11.419 53.726 11.017 54.128 10.52 54.128C10.024 54.128 9.62 53.726 9.62 53.228C9.62 52.734 10.024 52.331 10.52 52.331C11.017 52.329 11.419 52.731 11.419 53.228Z" fill="white"/>
<path d="M11.419 51.539C11.419 52.034 11.017 52.435 10.52 52.435C10.024 52.435 9.62 52.035 9.62 51.539C9.62 51.04 10.024 50.64 10.52 50.64C11.017 50.64 11.419 51.04 11.419 51.539Z" fill="white"/>
<path d="M11.419 51.539H9.62V53.227H11.419V51.539Z" fill="white"/>
<path d="M10.52 50.64H6.383V54.128H10.52V50.64Z" fill="white"/>
<path d="M65.424 53.228C65.424 53.726 65.021 54.128 64.525 54.128C64.029 54.128 63.624 53.726 63.624 53.228C63.624 52.734 64.029 52.331 64.525 52.331C65.021 52.331 65.424 52.731 65.424 53.228Z" fill="white"/>
<path d="M65.424 51.539C65.424 52.034 65.021 52.435 64.525 52.435C64.029 52.435 63.624 52.035 63.624 51.539C63.624 51.04 64.029 50.64 64.525 50.64C65.021 50.64 65.424 51.04 65.424 51.539Z" fill="white"/>
<path d="M65.425 51.539H63.624V53.227H65.425V51.539Z" fill="white"/>
<path d="M64.525 50.64H60.389V54.128H64.525V50.64Z" fill="white"/>
<path d="M64.524 64.404C65.0211 64.404 65.424 64.0051 65.424 63.513C65.424 63.0209 65.0211 62.622 64.524 62.622C64.027 62.622 63.624 63.0209 63.624 63.513C63.624 64.0051 64.027 64.404 64.524 64.404Z" fill="white"/>
<path d="M65.424 61.845C65.424 62.332 65.021 62.732 64.525 62.732C64.029 62.732 63.624 62.333 63.624 61.845C63.624 61.349 64.029 60.952 64.525 60.952C65.021 60.952 65.424 61.349 65.424 61.845Z" fill="white"/>
<path d="M65.425 61.845H63.624V63.513H65.425V61.845Z" fill="white"/>
<path d="M64.525 60.952H60.389V64.403H64.525V60.952Z" fill="white"/>
<path d="M64.069 58.427C64.069 58.927 63.664 59.329 63.169 59.329C62.671 59.329 62.268 58.927 62.268 58.427C62.268 57.933 62.671 57.529 63.169 57.529C63.664 57.528 64.069 57.933 64.069 58.427Z" fill="white"/>
<path d="M63.168 57.639C63.6656 57.639 64.069 57.2356 64.069 56.738C64.069 56.2404 63.6656 55.837 63.168 55.837C62.6704 55.837 62.267 56.2404 62.267 56.738C62.267 57.2356 62.6704 57.639 63.168 57.639Z" fill="white"/>
<path d="M64.069 56.737H62.268V58.426H64.069V56.737Z" fill="white"/>
<path d="M63.169 55.839H57.752V59.329H63.169V55.839Z" fill="white"/>
<path d="M35.924 58.372C35.924 58.873 35.52 59.274 35.024 59.274C34.529 59.274 34.124 58.873 34.124 58.372C34.124 57.879 34.529 57.477 35.024 57.477C35.52 57.478 35.924 57.879 35.924 58.372Z" fill="white"/>
<path d="M35.924 56.685C35.924 57.183 35.52 57.585 35.024 57.585C34.529 57.585 34.124 57.183 34.124 56.685C34.124 56.191 34.529 55.786 35.024 55.786C35.52 55.784 35.924 56.188 35.924 56.685Z" fill="white"/>
<path d="M35.924 56.685H34.124V58.373H35.924V56.685Z" fill="white"/>
<path d="M35.024 55.784H30.888V59.274H35.024V55.784Z" fill="white"/>
<path d="M44.841 53.147C44.841 53.668 44.421 54.084 43.904 54.084C43.387 54.084 42.968 53.668 42.968 53.147C42.968 52.635 43.386 52.216 43.904 52.216C44.422 52.216 44.841 52.636 44.841 53.147Z" fill="white"/>
<path d="M44.841 51.394C44.841 51.912 44.421 52.331 43.904 52.331C43.387 52.331 42.968 51.912 42.968 51.394C42.968 50.88 43.386 50.462 43.904 50.462C44.422 50.462 44.841 50.88 44.841 51.394Z" fill="white"/>
<path d="M44.841 51.394H42.968V53.148H44.841V51.394Z" fill="white"/>
<path d="M43.904 50.462H39.605V54.084H43.904V50.462Z" fill="white"/>
<path d="M44.841 63.569C44.841 64.09 44.421 64.506 43.904 64.506C43.387 64.506 42.968 64.091 42.968 63.569C42.968 63.055 43.386 62.639 43.904 62.639C44.422 62.639 44.841 63.058 44.841 63.569Z" fill="white"/>
<path d="M44.841 61.817C44.841 62.332 44.421 62.754 43.904 62.754C43.387 62.754 42.968 62.332 42.968 61.817C42.968 61.299 43.386 60.88 43.904 60.88C44.422 60.88 44.841 61.302 44.841 61.817Z" fill="white"/>
<path d="M44.841 61.817H42.968V63.569H44.841V61.817Z" fill="white"/>
<path d="M43.904 60.882H39.605V64.506H43.904V60.882Z" fill="white"/>
<path d="M29.589 57.584C30.0861 57.584 30.489 57.1811 30.489 56.684C30.489 56.1869 30.0861 55.784 29.589 55.784C29.0919 55.784 28.689 56.1869 28.689 56.684C28.689 57.1811 29.0919 57.584 29.589 57.584Z" fill="white"/>
<path d="M28.688 58.372C28.688 57.879 29.092 57.472 29.587 57.472C30.084 57.472 30.488 57.879 30.488 58.372C30.488 58.868 30.083 59.274 29.587 59.274C29.092 59.274 28.688 58.868 28.688 58.372Z" fill="white"/>
<path d="M30.489 56.685H28.688V58.373H30.489V56.685Z" fill="white"/>
<path d="M33.724 55.784H29.588V59.274H33.724V55.784Z" fill="white"/>
<path d="M8.45201 63.455C8.45201 63.95 8.04901 64.356 7.55301 64.356C7.05601 64.356 6.65302 63.95 6.65302 63.455C6.65302 62.963 7.05601 62.558 7.55301 62.558C8.04901 62.558 8.45201 62.963 8.45201 63.455Z" fill="white"/>
<path d="M7.55201 62.666C8.04906 62.666 8.45201 62.2631 8.45201 61.766C8.45201 61.2689 8.04906 60.866 7.55201 60.866C7.05495 60.866 6.65201 61.2689 6.65201 61.766C6.65201 62.2631 7.05495 62.666 7.55201 62.666Z" fill="white"/>
<path d="M8.45201 61.767H6.65302V63.455H8.45201V61.767Z" fill="white"/>
<path d="M7.55301 61.209H3.41701V64.356H7.55301V61.209Z" fill="white"/>
<path d="M18.078 63.562C18.078 64.058 17.653 64.463 17.13 64.463C16.606 64.463 16.182 64.058 16.182 63.562C16.182 63.074 16.606 62.668 17.13 62.668C17.653 62.669 18.078 63.073 18.078 63.562Z" fill="white"/>
<path d="M17.13 62.775C17.6536 62.775 18.078 62.3747 18.078 61.881C18.078 61.3873 17.6536 60.987 17.13 60.987C16.6064 60.987 16.182 61.3873 16.182 61.881C16.182 62.3747 16.6064 62.775 17.13 62.775Z" fill="white"/>
<path d="M18.078 61.881H16.182V63.564H18.078V61.881Z" fill="white"/>
<path d="M17.13 60.981H12.775V64.462H17.13V60.981Z" fill="white"/>
<path d="M11.827 61.88C11.827 61.386 12.25 60.982 12.775 60.982C13.298 60.982 13.723 61.386 13.723 61.88C13.723 62.372 13.298 62.775 12.775 62.775C12.25 62.774 11.827 62.372 11.827 61.88Z" fill="white"/>
<path d="M11.827 63.562C11.827 63.068 12.25 62.668 12.775 62.668C13.298 62.668 13.723 63.067 13.723 63.562C13.723 64.058 13.298 64.463 12.775 64.463C12.25 64.464 11.827 64.058 11.827 63.562Z" fill="white"/>
<path d="M13.723 61.88H11.827V63.564H13.723V61.88Z" fill="white"/>
<path d="M17.13 60.981H12.775V64.462H17.13V60.981Z" fill="white"/>
<path d="M18.078 53.172C18.078 53.668 17.653 54.068 17.13 54.068C16.606 54.068 16.182 53.67 16.182 53.172C16.182 52.681 16.606 52.275 17.13 52.275C17.653 52.272 18.078 52.681 18.078 53.172Z" fill="white"/>
<path d="M18.078 51.49C18.078 51.979 17.653 52.382 17.13 52.382C16.606 52.382 16.182 51.982 16.182 51.49C16.182 50.993 16.606 50.591 17.13 50.591C17.653 50.591 18.078 50.993 18.078 51.49Z" fill="white"/>
<path d="M18.078 51.49H16.182V53.172H18.078V51.49Z" fill="white"/>
<path d="M17.13 50.591H12.775V54.068H17.13V50.591Z" fill="white"/>
<path d="M11.827 51.487C11.827 50.993 12.25 50.587 12.775 50.587C13.298 50.587 13.723 50.993 13.723 51.487C13.723 51.979 13.298 52.382 12.775 52.382C12.25 52.382 11.827 51.979 11.827 51.487Z" fill="white"/>
<path d="M12.775 54.069C13.2986 54.069 13.723 53.6674 13.723 53.172C13.723 52.6766 13.2986 52.275 12.775 52.275C12.2514 52.275 11.827 52.6766 11.827 53.172C11.827 53.6674 12.2514 54.069 12.775 54.069Z" fill="white"/>
<path d="M13.723 51.487H11.827V53.172H13.723V51.487Z" fill="white"/>
<path d="M17.13 50.587H12.775V54.066H17.13V50.587Z" fill="white"/>
<path d="M19.297 64.354C18.863 64.354 18.509 63.985 18.509 63.528C18.509 63.067 18.863 62.698 19.297 62.698C19.727 62.698 20.081 63.067 20.081 63.528C20.081 63.985 19.727 64.354 19.297 64.354Z" fill="white"/>
<path d="M20.771 64.356C21.204 64.356 21.555 63.9848 21.555 63.527C21.555 63.0692 21.204 62.698 20.771 62.698C20.338 62.698 19.987 63.0692 19.987 63.527C19.987 63.9848 20.338 64.356 20.771 64.356Z" fill="white"/>
<path d="M20.771 62.698H19.297V64.354H20.771V62.698Z" fill="white"/>
<path d="M21.557 59.707H18.509V63.528H21.557V59.707Z" fill="white"/>
<path d="M20.771 50.542C21.208 50.542 21.558 50.912 21.558 51.373C21.558 51.831 21.208 52.207 20.771 52.207C20.341 52.207 19.987 51.831 19.987 51.373C19.986 50.912 20.341 50.542 20.771 50.542Z" fill="white"/>
<path d="M19.297 52.208C19.73 52.208 20.081 51.8351 20.081 51.375C20.081 50.9149 19.73 50.542 19.297 50.542C18.864 50.542 18.513 50.9149 18.513 51.375C18.513 51.8351 18.864 52.208 19.297 52.208Z" fill="white"/>
<path d="M20.771 50.542H19.297V52.207H20.771V50.542Z" fill="white"/>
<path d="M21.56 51.373H18.511V60.227H21.56V51.373Z" fill="white"/>
<path d="M25.82 64.356C26.2552 64.356 26.608 63.9848 26.608 63.527C26.608 63.0692 26.2552 62.698 25.82 62.698C25.3848 62.698 25.032 63.0692 25.032 63.527C25.032 63.9848 25.3848 64.356 25.82 64.356Z" fill="white"/>
<path d="M27.295 64.356C27.728 64.356 28.079 63.9848 28.079 63.527C28.079 63.0692 27.728 62.698 27.295 62.698C26.862 62.698 26.511 63.0692 26.511 63.527C26.511 63.9848 26.862 64.356 27.295 64.356Z" fill="white"/>
<path d="M27.296 62.698H25.82V64.354H27.296V62.698Z" fill="white"/>
<path d="M28.083 59.707H25.032V63.528H28.083V59.707Z" fill="white"/>
<path d="M27.295 50.542C27.728 50.542 28.083 50.912 28.083 51.373C28.083 51.831 27.728 52.207 27.295 52.207C26.863 52.207 26.511 51.831 26.511 51.373C26.511 50.912 26.863 50.542 27.295 50.542Z" fill="white"/>
<path d="M25.822 50.542C26.252 50.542 26.606 50.912 26.606 51.373C26.606 51.831 26.252 52.207 25.822 52.207C25.385 52.207 25.034 51.831 25.034 51.373C25.034 50.912 25.386 50.542 25.822 50.542Z" fill="white"/>
<path d="M27.295 50.542H25.822V52.207H27.295V50.542Z" fill="white"/>
<path d="M28.083 51.373H25.034V60.227H28.083V51.373Z" fill="white"/>
<path d="M2.60499 62.665C3.1015 62.665 3.50399 62.2625 3.50399 61.766C3.50399 61.2695 3.1015 60.867 2.60499 60.867C2.10849 60.867 1.70599 61.2695 1.70599 61.766C1.70599 62.2625 2.10849 62.665 2.60499 62.665Z" fill="white"/>
<path d="M2.60499 64.354C3.1015 64.354 3.50399 63.9515 3.50399 63.455C3.50399 62.9585 3.1015 62.556 2.60499 62.556C2.10849 62.556 1.70599 62.9585 1.70599 63.455C1.70599 63.9515 2.10849 64.354 2.60499 64.354Z" fill="white"/>
<path d="M3.504 61.767H1.705V63.455H3.504V61.767Z" fill="white"/>
<path d="M6.741 61.642H2.603V64.357H6.741V61.642Z" fill="white"/>
<path d="M2.91801 61.476C3.58406 61.476 4.12401 60.9361 4.12401 60.27C4.12401 59.6039 3.58406 59.064 2.91801 59.064C2.25195 59.064 1.71201 59.6039 1.71201 60.27C1.71201 60.9361 2.25195 61.476 2.91801 61.476Z" fill="white"/>
<path d="M8.452 50.64H4.991V61.855H8.452V50.64Z" fill="white"/>
<path d="M4.128 60.271H1.705V63.504H4.128V60.271Z" fill="white"/>
<path d="M4.128 60.546C4.128 60.546 4.075 61.209 4.528 61.209C5.028 61.209 4.99 60.546 4.99 60.546L5.237 60.867V62.239L2.993 61.852C2.993 61.852 3.284 61.063 3.332 61.063C3.379 61.063 4.128 60.546 4.128 60.546Z" fill="white"/>
<path d="M16.623 53.392H13.167V63.564H16.623V53.392Z" fill="white"/>
<path d="M25.969 55.8H21.253V59.256H25.969V55.8Z" fill="white"/>
<path d="M46.296 64.356C46.7301 64.356 47.082 63.9848 47.082 63.527C47.082 63.0692 46.7301 62.698 46.296 62.698C45.8619 62.698 45.51 63.0692 45.51 63.527C45.51 63.9848 45.8619 64.356 46.296 64.356Z" fill="white"/>
<path d="M47.772 64.356C48.2056 64.356 48.557 63.9848 48.557 63.527C48.557 63.0692 48.2056 62.698 47.772 62.698C47.3385 62.698 46.987 63.0692 46.987 63.527C46.987 63.9848 47.3385 64.356 47.772 64.356Z" fill="white"/>
<path d="M47.772 62.698H46.296V64.354H47.772V62.698Z" fill="white"/>
<path d="M48.561 59.707H45.51V63.528H48.561V59.707Z" fill="white"/>
<path d="M47.773 50.542C48.208 50.542 48.561 50.912 48.561 51.373C48.561 51.831 48.208 52.207 47.773 52.207C47.342 52.207 46.987 51.831 46.987 51.373C46.987 50.912 47.342 50.542 47.773 50.542Z" fill="white"/>
<path d="M46.299 50.542C46.732 50.542 47.083 50.912 47.083 51.373C47.083 51.831 46.732 52.207 46.299 52.207C45.863 52.207 45.51 51.831 45.51 51.373C45.51 50.912 45.863 50.542 46.299 50.542Z" fill="white"/>
<path d="M47.773 50.542H46.299V52.207H47.773V50.542Z" fill="white"/>
<path d="M48.56 51.373H45.512V60.227H48.56V51.373Z" fill="white"/>
<path d="M52.823 64.354C52.388 64.354 52.033 63.985 52.033 63.528C52.033 63.067 52.388 62.698 52.823 62.698C53.254 62.698 53.607 63.067 53.607 63.528C53.607 63.985 53.254 64.354 52.823 64.354Z" fill="white"/>
<path d="M54.298 64.356C54.7315 64.356 55.083 63.9848 55.083 63.527C55.083 63.0692 54.7315 62.698 54.298 62.698C53.8645 62.698 53.513 63.0692 53.513 63.527C53.513 63.9848 53.8645 64.356 54.298 64.356Z" fill="white"/>
<path d="M54.298 62.698H52.823V64.354H54.298V62.698Z" fill="white"/>
<path d="M55.084 59.707H52.033V63.528H55.084V59.707Z" fill="white"/>
<path d="M54.298 52.208C54.7321 52.208 55.084 51.8351 55.084 51.375C55.084 50.9149 54.7321 50.542 54.298 50.542C53.8639 50.542 53.512 50.9149 53.512 51.375C53.512 51.8351 53.8639 52.208 54.298 52.208Z" fill="white"/>
<path d="M52.823 52.208C53.256 52.208 53.607 51.8351 53.607 51.375C53.607 50.9149 53.256 50.542 52.823 50.542C52.39 50.542 52.039 50.9149 52.039 51.375C52.039 51.8351 52.39 52.208 52.823 52.208Z" fill="white"/>
<path d="M54.298 50.542H52.823V52.207H54.298V50.542Z" fill="white"/>
<path d="M55.087 51.373H52.035V60.227H55.087V51.373Z" fill="white"/>
<path d="M66.911 64.354C66.423 64.354 66.033 63.985 66.033 63.528C66.033 63.067 66.423 62.698 66.911 62.698C67.39 62.698 67.784 63.067 67.784 63.528C67.784 63.985 67.39 64.354 66.911 64.354Z" fill="white"/>
<path d="M68.552 64.354C68.071 64.354 67.68 63.985 67.68 63.528C67.68 63.067 68.071 62.698 68.552 62.698C69.036 62.698 69.432 63.067 69.432 63.528C69.432 63.985 69.036 64.354 68.552 64.354Z" fill="white"/>
<path d="M68.552 62.698H66.911V64.354H68.552V62.698Z" fill="white"/>
<path d="M69.431 59.707H66.033V63.528H69.431V59.707Z" fill="white"/>
<path d="M68.556 52.208C69.0398 52.208 69.432 51.8351 69.432 51.375C69.432 50.9149 69.0398 50.542 68.556 50.542C68.0722 50.542 67.68 50.9149 67.68 51.375C67.68 51.8351 68.0722 52.208 68.556 52.208Z" fill="white"/>
<path d="M66.911 50.542C67.391 50.542 67.784 50.912 67.784 51.373C67.784 51.831 67.391 52.207 66.911 52.207C66.427 52.207 66.033 51.831 66.033 51.373C66.033 50.912 66.427 50.542 66.911 50.542Z" fill="white"/>
<path d="M68.556 50.542H66.911V52.207H68.556V50.542Z" fill="white"/>
<path d="M69.431 51.373H66.033V60.227H69.431V51.373Z" fill="white"/>
<path d="M73.014 64.356C73.4989 64.356 73.892 63.9848 73.892 63.527C73.892 63.0692 73.4989 62.698 73.014 62.698C72.5291 62.698 72.136 63.0692 72.136 63.527C72.136 63.9848 72.5291 64.356 73.014 64.356Z" fill="white"/>
<path d="M74.657 64.354C74.176 64.354 73.784 63.985 73.784 63.528C73.784 63.067 74.176 62.698 74.657 62.698C75.141 62.698 75.536 63.067 75.536 63.528C75.536 63.985 75.142 64.354 74.657 64.354Z" fill="white"/>
<path d="M74.658 62.698H73.014V64.354H74.658V62.698Z" fill="white"/>
<path d="M75.536 59.707H72.136V63.528H75.536V59.707Z" fill="white"/>
<path d="M74.66 52.208C75.1438 52.208 75.536 51.8351 75.536 51.375C75.536 50.9149 75.1438 50.542 74.66 50.542C74.1762 50.542 73.784 50.9149 73.784 51.375C73.784 51.8351 74.1762 52.208 74.66 52.208Z" fill="white"/>
<path d="M73.014 52.208C73.4967 52.208 73.888 51.8351 73.888 51.375C73.888 50.9149 73.4967 50.542 73.014 50.542C72.5313 50.542 72.14 50.9149 72.14 51.375C72.14 51.8351 72.5313 52.208 73.014 52.208Z" fill="white"/>
<path d="M74.66 50.542H73.014V52.207H74.66V50.542Z" fill="white"/>
<path d="M75.536 51.373H72.138V60.227H75.536V51.373Z" fill="white"/>
<path d="M52.972 55.8H48.256V59.256H52.972V55.8Z" fill="white"/>
<path d="M39.605 50.462H38.361C38.361 50.462 36.391 50.765 36.391 54.128C36.391 57.494 36.391 61.855 36.391 61.855C36.391 61.855 36.36 64.506 39.605 64.506C42.851 64.506 40.785 60.882 40.785 60.882H40.479C40.479 60.882 39.877 61.021 39.877 59.707C39.877 58.395 39.877 54.509 39.877 54.509C39.877 54.509 39.976 54.084 40.59 54.084C41.203 54.084 40.575 53.245 40.575 53.245L39.605 50.462Z" fill="white"/>
<path d="M85.829 53.147C85.829 53.668 85.41 54.084 84.893 54.084C84.374 54.084 83.956 53.668 83.956 53.147C83.956 52.635 84.374 52.216 84.893 52.216C85.41 52.218 85.829 52.636 85.829 53.147Z" fill="white"/>
<path d="M85.829 51.394C85.829 51.912 85.41 52.331 84.893 52.331C84.374 52.331 83.956 51.912 83.956 51.394C83.956 50.88 84.374 50.462 84.893 50.462C85.41 50.462 85.829 50.88 85.829 51.394Z" fill="white"/>
<path d="M85.829 51.394H83.957V53.148H85.829V51.394Z" fill="white"/>
<path d="M84.893 50.462H78.861V54.084H84.893V50.462Z" fill="white"/>
<path d="M81.077 56.741C81.077 56.221 81.495 55.807 82.012 55.807C82.528 55.807 82.947 56.221 82.947 56.741C82.947 57.254 82.528 57.677 82.012 57.677C81.495 57.677 81.077 57.254 81.077 56.741Z" fill="white"/>
<path d="M81.077 58.499C81.077 57.981 81.495 57.563 82.012 57.563C82.528 57.563 82.947 57.981 82.947 58.499C82.947 59.013 82.528 59.435 82.012 59.435C81.495 59.435 81.077 59.013 81.077 58.499Z" fill="white"/>
<path d="M82.946 56.741H81.077V58.499H82.946V56.741Z" fill="white"/>
<path d="M84.634 55.808H82.012V59.435H84.634V55.808Z" fill="white"/>
<path d="M84.952 55.802C85.436 55.802 85.829 56.224 85.829 56.74C85.829 57.256 85.436 57.678 84.952 57.678C84.473 57.678 84.083 57.256 84.083 56.74C84.083 56.224 84.473 55.802 84.952 55.802Z" fill="white"/>
<path d="M83.316 57.676C83.7976 57.676 84.188 57.2565 84.188 56.739C84.188 56.2215 83.7976 55.802 83.316 55.802C82.8344 55.802 82.444 56.2215 82.444 56.739C82.444 57.2565 82.8344 57.676 83.316 57.676Z" fill="white"/>
<path d="M84.952 55.802H83.316V57.677H84.952V55.802Z" fill="white"/>
<path d="M85.829 56.737H82.445V61.499H85.829V56.737Z" fill="white"/>
<path d="M79.105 60.882H83.404V64.506H79.558L79.105 60.882Z" fill="white"/>
<path d="M79.558 50.462H78.313C78.313 50.462 76.342 50.765 76.342 54.128C76.342 57.494 76.342 61.855 76.342 61.855C76.342 61.855 76.313 64.506 79.558 64.506C82.804 64.506 80.737 60.882 80.737 60.882H80.427C80.427 60.882 79.832 61.021 79.832 59.707C79.832 58.395 79.832 54.509 79.832 54.509C79.832 54.509 79.927 54.084 80.541 54.084C81.154 54.084 80.524 53.245 80.524 53.245L79.558 50.462Z" fill="white"/>
<path d="M55.601 51.472C55.601 51.015 55.975 50.64 56.432 50.64C56.893 50.64 57.264 51.015 57.264 51.472C57.264 51.927 56.893 52.3 56.432 52.3C55.975 52.3 55.601 51.927 55.601 51.472Z" fill="white"/>
<path d="M55.601 63.569C55.601 63.112 55.975 62.739 56.432 62.739C56.893 62.739 57.264 63.112 57.264 63.569C57.264 64.03 56.893 64.403 56.432 64.403C55.975 64.403 55.601 64.03 55.601 63.569Z" fill="white"/>
<path d="M59.257 51.472H55.601V63.57H59.257V51.472Z" fill="white"/>
<path d="M62.267 60.952H56.432V64.403H62.267V60.952Z" fill="white"/>
<path d="M61.326 50.64H56.432V54.128H61.326V50.64Z" fill="white"/>
<path d="M68.556 50.542H69.013C69.013 50.542 69.451 50.536 69.78 51.455C70.109 52.376 72.322 56.729 72.322 56.729L73.2 64.354C73.2 64.354 72.105 64.457 71.664 63.524C71.18 62.498 68.926 57.575 68.926 57.575L68.556 50.542Z" fill="white"/>
<path d="M85.829 61.499V62.099C85.829 62.099 86.005 64.506 83.404 64.506C80.801 64.506 82.303 63.31 82.303 63.31L83.404 60.384L85.829 61.499Z" fill="white"/>
<path d="M82.445 60.228C82.445 60.228 82.472 60.882 81.873 60.882V61.619L83.419 61.708L83.046 60.384L82.445 60.228Z" fill="white"/>
<path d="M82.11 59.435C82.11 59.435 82.445 59.457 82.445 59.781H83.046L82.807 58.996L82.144 59.052L82.11 59.435Z" fill="white"/>
<path d="M99.528 30.996C99.137 33.479 98.54 35.475 97.735 36.984L95.726 36.056C96.438 34.734 97.001 32.83 97.417 30.348L99.528 30.996ZM106.609 29.154L104.651 29.701C104.515 29.116 104.371 28.658 104.218 28.328C101.947 28.913 99.464 29.413 96.769 29.828L96.171 27.807C97.95 26.146 99.519 24.349 100.874 22.415C99.671 22.712 98.302 22.979 96.769 23.218L96.273 21.057C97.756 19.345 99.206 16.993 100.621 14L102.782 14.699C101.765 16.962 100.541 18.94 99.108 20.637C100.227 20.485 101.329 20.292 102.414 20.065C103.126 18.962 103.672 17.993 104.054 17.154L106.329 17.929C104.126 21.826 101.858 24.892 99.528 27.119C100.807 26.968 102.083 26.708 103.354 26.345C103.218 25.938 103.019 25.501 102.756 25.034L104.676 24.387C105.583 25.971 106.227 27.56 106.609 29.154ZM103.1 36.006L101.015 36.361C100.93 34.377 100.722 32.59 100.392 30.995L102.388 30.69C102.71 32.159 102.947 33.929 103.1 36.006ZM106.609 34.938L104.765 35.383C104.57 34.052 104.197 32.496 103.646 30.717L105.464 30.272C105.973 31.831 106.354 33.387 106.609 34.938ZM118.66 31.137C118.609 33.254 118.351 34.677 117.885 35.403C117.419 36.128 116.885 36.532 116.283 36.616C115.681 36.702 114.338 36.745 112.253 36.745C110.541 36.745 109.478 36.696 109.063 36.599C108.648 36.502 108.26 36.245 107.9 35.829C107.54 35.413 107.36 34.753 107.36 33.846V22.772H115.623V17.051H106.953V14.814H117.911V24.984H109.686V33.896C109.686 34.04 109.77 34.179 109.94 34.315C110.11 34.452 111.105 34.518 112.927 34.518C114.588 34.518 115.533 34.438 115.762 34.278C115.991 34.116 116.15 33.567 116.24 32.631C116.329 31.694 116.382 30.902 116.398 30.247L118.66 31.137Z" fill="#27348E"/>
<path d="M144.544 36.26H121.839V34.047H125.068V20.801H127.432V34.047H132.415V17.126H122.461V14.838H143.996V17.126H134.78V23.838H143.081V26.103H134.78V34.047H144.543L144.544 36.26Z" fill="#27348E"/>
<path d="M158.679 15.983C157.491 16.38 156.208 16.691 154.826 16.912V20.28H158.106V22.468H154.826V23.193C156.19 24.617 157.351 26.091 158.309 27.617L156.695 29.333C156.076 28.097 155.453 27.041 154.826 26.168V36.937H152.563V26.623C151.351 28.988 150.177 30.718 149.042 31.811L147.72 29.75C149.533 27.919 151.106 25.491 152.437 22.467H147.975V20.279H152.564V17.279C151.462 17.449 150.305 17.572 149.093 17.648L148.114 15.538C151.427 15.377 154.576 14.873 157.559 14.025L158.679 15.983ZM170.655 30.374L168.24 30.742V36.985H165.939V31.036L158.108 32.092L157.904 29.804L165.939 28.709V14.291H168.24V28.402L170.58 28.109L170.655 30.374ZM164.795 25.746L163.232 27.488C162.138 26.091 160.515 24.597 158.363 23.012L159.877 21.322C161.976 22.873 163.617 24.348 164.795 25.746ZM165.164 19.441L163.601 21.132C162.144 19.486 160.61 18.064 158.998 16.861L160.612 15.22C162.349 16.568 163.867 17.975 165.164 19.441Z" fill="#27348E"/>
<path d="M182.427 25.848C181.444 26.306 180.54 26.687 179.72 26.993V34.544C179.72 35.29 179.536 35.866 179.173 36.273C178.809 36.679 178.197 36.889 177.341 36.903C176.487 36.915 175.747 36.909 175.13 36.883L174.404 34.619C175.319 34.652 176.107 34.67 176.768 34.67C176.928 34.67 177.084 34.597 177.233 34.447C177.379 34.3 177.456 34.133 177.456 33.945V27.855C176.499 28.194 175.507 28.495 174.48 28.757L173.857 26.62C175.485 26.129 176.684 25.73 177.456 25.427V20.609H174.15V18.397H177.456V14.177H179.72V18.398H182.11V20.61H179.72V24.525C180.398 24.305 181.144 23.992 181.956 23.585L182.427 25.848ZM196.933 35.243L195.597 37.202C193.14 36.126 191.11 34.927 189.507 33.603C187.644 35 185.415 36.202 182.82 37.202L181.536 35.116C184.046 34.269 186.155 33.243 187.867 32.04C186.419 30.446 185.184 28.209 184.169 25.328H183.278V23.14H188.439V19.759H182.92V17.571H188.439V14.265H190.778V17.571H196.245V19.759H190.778V23.14H195.596V25.328C194.383 28.243 192.935 30.498 191.248 32.092C192.681 33.277 194.577 34.329 196.933 35.243ZM193.043 25.328H186.648C187.293 27.268 188.289 29.006 189.634 30.54C191.05 29.116 192.187 27.377 193.043 25.328Z" fill="#27348E"/>
<path d="M222.701 18.895H210.053C209.713 19.581 209.26 20.327 208.694 21.132H220.911V35.09C220.911 35.666 220.757 36.111 220.447 36.425C220.137 36.739 219.669 36.904 219.042 36.92C218.415 36.938 217.796 36.945 217.188 36.945C216.212 36.945 215.412 36.932 214.785 36.908L213.781 34.595C214.883 34.646 216.295 34.67 218.013 34.67C218.378 34.67 218.56 34.472 218.56 34.072V31.681H206.954C206.514 33.521 205.611 35.271 204.246 36.932L202.034 35.686C203.907 33.635 204.844 31.715 204.844 29.927V25.744C203.693 26.948 202.557 27.91 201.438 28.631L199.773 26.863C202.883 24.76 205.391 22.104 207.299 18.892H200.053V16.627H208.519C209.07 15.652 209.467 14.793 209.713 14.048L212.115 14.442C211.895 15.103 211.59 15.833 211.2 16.629H222.705V18.894L222.701 18.895ZM218.556 25.404V23.344H207.216V25.404H218.556ZM218.556 29.546V27.514H207.216V29.546H218.556Z" fill="#27348E"/>
<path d="M232.515 22.149C233.964 24.243 234.69 26.221 234.69 28.086C234.69 30.52 233.495 31.735 231.105 31.735C230.849 31.735 230.575 31.726 230.278 31.709L229.631 29.384C229.961 29.444 230.348 29.473 230.787 29.473C231.397 29.473 231.812 29.389 232.033 29.219C232.254 29.048 232.363 28.709 232.363 28.201C232.363 26.285 231.592 24.348 230.05 22.39C230.54 21.178 231.138 19.372 231.843 16.975H228.983V36.985H226.745V14.649H234.26V16.975C233.698 18.873 233.118 20.598 232.515 22.149ZM247.466 25.581H238.147V33.946C239.341 33.582 240.618 33.077 241.974 32.433L242.101 34.862C239.753 35.878 237.79 36.577 236.214 36.96L235.376 35.015C235.706 34.803 235.87 34.464 235.87 33.997V14.725H247.466V25.581ZM245.138 19.136V16.81H238.147V19.136H245.138ZM245.138 23.509V21.183H238.147V23.509H245.138ZM248.916 35.217L247.594 37.123C243.9 34.887 241.48 31.585 240.336 27.221L242.432 26.573C242.745 27.683 243.131 28.667 243.59 29.522C244.717 28.709 245.819 27.667 246.896 26.395L248.561 27.908C247.273 29.469 246.014 30.692 244.786 31.582C245.877 32.997 247.254 34.209 248.916 35.217Z" fill="#27348E"/>
<path d="M261.756 14.89C260.061 19.475 257.277 23.327 253.402 26.446L251.916 24.463C255.398 21.846 257.907 18.392 259.441 14.104L261.756 14.89ZM273.361 35.688L271.289 37.126C270.808 35.989 270.319 35.016 269.827 34.202C265.818 35.141 260.916 36.003 255.119 36.782L254.445 34.8C256.674 33.19 259.284 28.774 262.276 21.553L264.64 22.251C262.53 27.192 260.36 31.134 258.13 34.075C262.038 33.625 265.546 33.012 268.656 32.23C268.132 31.324 267.227 30.01 265.948 28.29L267.868 27.044C270.031 29.754 271.861 32.637 273.361 35.688ZM275.065 24.577L273.679 26.624C270.458 24.346 268.054 21.022 266.47 16.657H264.361V14.445H268.136C269.466 18.886 271.776 22.263 275.065 24.577Z" fill="#27348E"/>
<path d="M300.033 33.92C300.033 35.945 299.043 36.959 297.058 36.959C295.304 36.959 294.02 36.94 293.206 36.908L292.531 34.568C294.464 34.611 295.805 34.631 296.56 34.631C297.305 34.631 297.678 34.409 297.678 33.97V16.834H278.202V14.698H300.029V33.92H300.033ZM295.547 21.183H278.752V19.073H295.547V21.183ZM293.881 32.382H280.266V23.611H293.881V32.382ZM291.515 30.221V25.745H282.577V30.221H291.515Z" fill="#27348E"/>
<path d="M96.162 49.329L96.881 49.208C96.901 49.771 96.987 50.157 97.142 50.364C97.296 50.571 97.509 50.676 97.78 50.676C97.971 50.676 98.139 50.622 98.285 50.518C98.431 50.414 98.528 50.281 98.579 50.119C98.649 49.901 98.684 49.572 98.684 49.131V44.057H99.482V49.075C99.482 49.978 99.335 50.616 99.038 50.989C98.742 51.36 98.324 51.546 97.785 51.546C97.26 51.546 96.868 51.378 96.61 51.044C96.311 50.661 96.162 50.088 96.162 49.329Z" fill="#999999"/>
<path d="M100.959 51.416V44.055H101.757V51.416H100.959Z" fill="#999999"/>
<path d="M103.147 51.416V44.055H103.946V47.078H107.085V44.055H107.884V51.416H107.085V47.947H103.946V51.416H103.147Z" fill="#999999"/>
<path d="M115.868 48.836L116.672 49.082C116.494 49.908 116.184 50.524 115.74 50.933C115.296 51.338 114.757 51.543 114.12 51.543C113.561 51.543 113.083 51.406 112.686 51.133C112.29 50.862 111.964 50.422 111.712 49.82C111.459 49.216 111.332 48.504 111.332 47.683C111.332 46.872 111.459 46.186 111.712 45.624C111.965 45.062 112.308 44.64 112.74 44.353C113.172 44.066 113.654 43.923 114.187 43.923C114.77 43.923 115.271 44.104 115.69 44.466C116.109 44.827 116.402 45.361 116.57 46.062L115.787 46.289C115.518 45.268 114.98 44.758 114.173 44.758C113.771 44.758 113.422 44.862 113.127 45.069C112.831 45.274 112.596 45.594 112.42 46.03C112.244 46.467 112.156 47.017 112.156 47.684C112.156 48.692 112.333 49.45 112.688 49.954C113.042 50.458 113.515 50.71 114.104 50.71C114.54 50.71 114.915 50.556 115.231 50.245C115.547 49.935 115.76 49.465 115.868 48.836Z" fill="#999999"/>
<path d="M117.665 51.416V44.055H118.464V47.078H121.603V44.055H122.402V51.416H121.603V47.947H118.464V51.416H117.665Z" fill="#999999"/>
<path d="M123.772 51.416V44.055H128.136V44.924H124.571V47.174H127.91V48.041H124.571V50.548H128.277V51.416H123.772Z" fill="#999999"/>
<path d="M129.356 51.416V44.055H130.174L133.348 49.847V44.055H134.112V51.416H133.293L130.125 45.623V51.416H129.356Z" fill="#999999"/>
<path d="M138.31 48.53V47.663L140.867 47.657V50.393C140.474 50.775 140.07 51.062 139.651 51.254C139.232 51.445 138.802 51.543 138.36 51.543C137.771 51.543 137.246 51.396 136.784 51.101C136.322 50.806 135.956 50.375 135.686 49.809C135.416 49.245 135.282 48.563 135.282 47.769C135.282 46.965 135.418 46.265 135.689 45.668C135.96 45.072 136.315 44.632 136.753 44.349C137.191 44.067 137.71 43.925 138.31 43.925C138.752 43.925 139.139 44.007 139.47 44.17C139.801 44.334 140.074 44.566 140.288 44.867C140.502 45.17 140.663 45.582 140.77 46.108L140.051 46.348C139.954 45.933 139.832 45.622 139.685 45.415C139.538 45.21 139.343 45.049 139.103 44.932C138.862 44.815 138.59 44.756 138.289 44.756C137.851 44.756 137.474 44.862 137.157 45.075C136.84 45.288 136.586 45.618 136.393 46.067C136.201 46.515 136.105 47.063 136.105 47.712C136.105 48.696 136.31 49.435 136.722 49.926C137.134 50.415 137.669 50.661 138.329 50.661C138.643 50.661 138.966 50.587 139.296 50.434C139.625 50.284 139.887 50.105 140.081 49.897V48.526H138.31V48.53Z" fill="#999999"/>
<path d="M144.351 51.416V44.055H145.551L146.985 49.268L147.271 50.358C147.341 50.087 147.449 49.694 147.593 49.178L149.04 44.055H150.115V51.416H149.346V45.26L147.586 51.416H146.868L145.118 45.154V51.416H144.351Z" fill="#999999"/>
<path d="M150.74 51.416L153.068 44.055H153.922L156.395 51.416H155.481L154.779 49.187H152.239L151.583 51.416H150.74ZM152.471 48.394H154.528L153.901 46.356C153.707 45.73 153.564 45.22 153.474 44.829C153.396 45.303 153.286 45.77 153.143 46.235L152.471 48.394Z" fill="#999999"/>
<path d="M161.31 48.836L162.114 49.082C161.936 49.908 161.627 50.524 161.181 50.933C160.738 51.338 160.199 51.543 159.562 51.543C159.003 51.543 158.525 51.406 158.128 51.133C157.732 50.862 157.405 50.422 157.153 49.82C156.9 49.216 156.773 48.504 156.773 47.683C156.773 46.872 156.9 46.186 157.153 45.624C157.406 45.062 157.749 44.64 158.18 44.353C158.613 44.066 159.094 43.923 159.627 43.923C160.211 43.923 160.711 44.104 161.131 44.466C161.549 44.827 161.842 45.361 162.01 46.062L161.228 46.289C160.959 45.268 160.42 44.758 159.614 44.758C159.212 44.758 158.863 44.862 158.568 45.069C158.272 45.274 158.038 45.594 157.861 46.03C157.685 46.467 157.596 47.017 157.596 47.684C157.596 48.692 157.774 49.45 158.129 49.954C158.483 50.458 158.955 50.71 159.545 50.71C159.981 50.71 160.356 50.556 160.672 50.245C160.989 49.935 161.203 49.465 161.31 48.836Z" fill="#999999"/>
<path d="M163.107 51.416V44.055H163.906V47.078H167.045V44.055H167.844V51.416H167.045V47.947H163.906V51.416H163.107Z" fill="#999999"/>
<path d="M169.35 51.416V44.055H170.148V51.416H169.35Z" fill="#999999"/>
<path d="M171.519 51.416V44.055H172.337L175.511 49.847V44.055H176.275V51.416H175.457L172.289 45.623V51.416H171.519Z" fill="#999999"/>
<path d="M177.646 51.416V44.055H182.009V44.924H178.445V47.174H181.784V48.041H178.445V50.548H182.151V51.416H177.646Z" fill="#999999"/>
<path d="M183.25 51.416V44.055H185.928C186.488 44.055 186.9 44.123 187.166 44.261C187.432 44.399 187.649 44.625 187.82 44.948C187.991 45.266 188.076 45.636 188.076 46.058C188.076 46.614 187.931 47.063 187.641 47.409C187.352 47.753 186.931 47.972 186.378 48.065C186.603 48.202 186.774 48.336 186.891 48.475C187.128 48.756 187.337 49.069 187.518 49.413L188.573 51.417H187.569L186.763 49.887C186.45 49.288 186.216 48.885 186.056 48.677C185.899 48.469 185.743 48.329 185.595 48.257C185.447 48.185 185.239 48.149 184.97 48.149H184.048V51.42H183.249V51.416H183.25ZM184.048 47.304H185.765C186.14 47.304 186.425 47.259 186.619 47.168C186.813 47.078 186.968 46.936 187.081 46.74C187.194 46.547 187.253 46.32 187.253 46.062C187.253 45.691 187.144 45.399 186.927 45.186C186.708 44.973 186.386 44.867 185.956 44.867H184.048V47.304Z" fill="#999999"/>
<path d="M190.894 51.416V48.299L188.569 44.055H189.545L190.732 46.278C190.965 46.716 191.172 47.132 191.35 47.524C191.528 47.139 191.746 46.706 192.008 46.222L193.18 44.055H194.105L191.694 48.299V51.416H190.894Z" fill="#999999"/>
<path d="M198.422 51.416V44.924H196.434V44.055H201.219V44.924H199.221V51.416H198.422Z" fill="#999999"/>
<path d="M202.043 51.416V44.055H206.406V44.924H202.842V47.174H206.18V48.041H202.842V50.548H206.547V51.416H202.043Z" fill="#999999"/>
<path d="M211.935 48.836L212.739 49.082C212.561 49.908 212.252 50.524 211.806 50.933C211.363 51.338 210.824 51.543 210.187 51.543C209.628 51.543 209.15 51.406 208.753 51.133C208.357 50.862 208.03 50.422 207.778 49.82C207.525 49.216 207.398 48.504 207.398 47.683C207.398 46.872 207.525 46.186 207.778 45.624C208.031 45.062 208.374 44.64 208.805 44.353C209.238 44.066 209.719 43.923 210.252 43.923C210.836 43.923 211.336 44.104 211.756 44.466C212.174 44.827 212.467 45.361 212.635 46.062L211.853 46.289C211.584 45.268 211.045 44.758 210.239 44.758C209.837 44.758 209.488 44.862 209.193 45.069C208.897 45.274 208.663 45.594 208.486 46.03C208.31 46.467 208.221 47.017 208.221 47.684C208.221 48.692 208.399 49.45 208.754 49.954C209.108 50.458 209.58 50.71 210.17 50.71C210.606 50.71 210.981 50.556 211.297 50.245C211.614 49.935 211.828 49.465 211.935 48.836Z" fill="#999999"/>
<path d="M213.732 51.416V44.055H214.531V47.078H217.67V44.055H218.469V51.416H217.67V47.947H214.531V51.416H213.732Z" fill="#999999"/>
<path d="M219.798 51.416V44.055H220.616L223.79 49.847V44.055H224.554V51.416H223.736L220.568 45.623V51.416H219.798Z" fill="#999999"/>
<path d="M225.684 47.831C225.684 46.577 225.96 45.612 226.513 44.936C227.065 44.261 227.753 43.924 228.576 43.924C229.108 43.924 229.594 44.074 230.032 44.375C230.47 44.677 230.818 45.113 231.074 45.688C231.332 46.262 231.459 46.946 231.459 47.741C231.459 48.831 231.211 49.72 230.717 50.407C230.17 51.163 229.455 51.542 228.571 51.542C227.679 51.542 226.965 51.153 226.422 50.378C225.929 49.675 225.684 48.827 225.684 47.831ZM226.507 47.844C226.507 48.752 226.706 49.457 227.108 49.957C227.507 50.457 227.995 50.709 228.567 50.709C229.153 50.709 229.644 50.455 230.041 49.949C230.438 49.443 230.637 48.699 230.637 47.719C230.637 47.084 230.534 46.519 230.33 46.02C230.174 45.638 229.935 45.332 229.619 45.103C229.303 44.874 228.957 44.758 228.582 44.758C227.979 44.758 227.483 45.01 227.094 45.512C226.703 46.015 226.507 46.791 226.507 47.844Z" fill="#999999"/>
<path d="M232.423 51.416V44.055H233.222V50.548H236.195V51.416H232.423Z" fill="#999999"/>
<path d="M236.938 47.831C236.938 46.577 237.214 45.612 237.767 44.936C238.319 44.261 239.007 43.924 239.83 43.924C240.362 43.924 240.848 44.074 241.286 44.375C241.724 44.677 242.072 45.113 242.328 45.688C242.586 46.262 242.713 46.946 242.713 47.741C242.713 48.831 242.465 49.72 241.971 50.407C241.424 51.163 240.709 51.542 239.825 51.542C238.934 51.542 238.219 51.153 237.676 50.378C237.184 49.675 236.938 48.827 236.938 47.831ZM237.761 47.844C237.761 48.752 237.96 49.457 238.362 49.957C238.761 50.457 239.25 50.709 239.821 50.709C240.407 50.709 240.898 50.455 241.295 49.949C241.692 49.443 241.891 48.699 241.891 47.719C241.891 47.084 241.788 46.519 241.584 46.02C241.428 45.638 241.189 45.332 240.873 45.103C240.557 44.874 240.211 44.758 239.836 44.758C239.233 44.758 238.737 45.01 238.348 45.512C237.957 46.015 237.761 46.791 237.761 47.844Z" fill="#999999"/>
<path d="M246.57 48.53V47.663L249.127 47.657V50.393C248.734 50.775 248.33 51.062 247.911 51.254C247.492 51.445 247.062 51.543 246.62 51.543C246.031 51.543 245.506 51.396 245.045 51.101C244.582 50.806 244.217 50.375 243.946 49.809C243.675 49.245 243.543 48.563 243.543 47.769C243.543 46.965 243.678 46.265 243.949 45.668C244.22 45.072 244.575 44.632 245.013 44.349C245.451 44.067 245.97 43.925 246.57 43.925C247.011 43.925 247.399 44.007 247.73 44.17C248.061 44.334 248.334 44.566 248.548 44.867C248.761 45.17 248.923 45.582 249.029 46.108L248.31 46.348C248.213 45.933 248.09 45.622 247.944 45.415C247.798 45.21 247.602 45.049 247.362 44.932C247.121 44.815 246.848 44.756 246.548 44.756C246.11 44.756 245.734 44.862 245.417 45.075C245.099 45.288 244.845 45.618 244.652 46.067C244.46 46.515 244.364 47.063 244.364 47.712C244.364 48.696 244.569 49.435 244.981 49.926C245.393 50.415 245.928 50.661 246.588 50.661C246.901 50.661 247.225 50.587 247.555 50.434C247.883 50.284 248.146 50.105 248.34 49.897V48.526H246.569L246.57 48.53Z" fill="#999999"/>
<path d="M250.442 51.416V44.055H251.24V51.416H250.442Z" fill="#999999"/>
<path d="M252.652 51.416V44.055H257.016V44.924H253.451V47.174H256.791V48.041H253.451V50.548H257.157V51.416H252.652Z" fill="#999999"/>
<path d="M257.99 49.047L258.743 48.967C258.783 49.371 258.875 49.687 259.016 49.912C259.159 50.139 259.362 50.32 259.626 50.457C259.891 50.595 260.189 50.664 260.521 50.664C260.996 50.664 261.365 50.547 261.626 50.314C261.89 50.082 262.022 49.781 262.022 49.41C262.022 49.193 261.974 49.004 261.878 48.842C261.782 48.681 261.638 48.547 261.445 48.444C261.253 48.341 260.837 48.194 260.197 48.006C259.63 47.836 259.223 47.666 258.982 47.496C258.741 47.324 258.553 47.107 258.419 46.846C258.285 46.584 258.218 46.285 258.218 45.953C258.218 45.357 258.41 44.871 258.796 44.492C259.181 44.113 259.699 43.926 260.354 43.926C260.802 43.926 261.195 44.015 261.532 44.192C261.868 44.37 262.131 44.624 262.315 44.956C262.502 45.288 262.6 45.679 262.614 46.126L261.845 46.196C261.804 45.717 261.66 45.362 261.415 45.133C261.169 44.902 260.822 44.786 260.378 44.786C259.927 44.786 259.581 44.888 259.343 45.089C259.107 45.292 258.988 45.555 258.988 45.876C258.988 46.173 259.075 46.403 259.25 46.567C259.424 46.731 259.815 46.897 260.426 47.065C261.021 47.23 261.44 47.374 261.68 47.495C262.047 47.683 262.326 47.932 262.514 48.237C262.702 48.542 262.795 48.907 262.795 49.333C262.795 49.755 262.696 50.139 262.5 50.483C262.301 50.831 262.032 51.092 261.692 51.273C261.352 51.454 260.943 51.544 260.464 51.544C259.716 51.544 259.122 51.319 258.679 50.87C258.237 50.42 258.006 49.814 257.99 49.047Z" fill="#999999"/>
<path d="M270.513 48.836L271.318 49.082C271.14 49.908 270.83 50.524 270.386 50.933C269.942 51.338 269.403 51.543 268.765 51.543C268.206 51.543 267.729 51.406 267.331 51.133C266.935 50.862 266.609 50.422 266.357 49.82C266.104 49.216 265.977 48.504 265.977 47.683C265.977 46.872 266.104 46.186 266.357 45.624C266.61 45.062 266.953 44.64 267.385 44.353C267.817 44.066 268.299 43.923 268.832 43.923C269.414 43.923 269.916 44.104 270.334 44.466C270.754 44.827 271.047 45.361 271.215 46.062L270.432 46.289C270.162 45.268 269.625 44.758 268.818 44.758C268.417 44.758 268.067 44.862 267.772 45.069C267.476 45.274 267.241 45.594 267.065 46.03C266.889 46.467 266.801 47.017 266.801 47.684C266.801 48.692 266.978 49.45 267.332 49.954C267.686 50.458 268.159 50.71 268.748 50.71C269.185 50.71 269.56 50.556 269.875 50.245C270.193 49.935 270.407 49.465 270.513 48.836Z" fill="#999999"/>
<path d="M272.09 47.831C272.09 46.577 272.366 45.612 272.92 44.936C273.471 44.261 274.159 43.924 274.983 43.924C275.514 43.924 276.001 44.074 276.439 44.375C276.877 44.677 277.225 45.113 277.481 45.688C277.738 46.262 277.866 46.946 277.866 47.741C277.866 48.831 277.618 49.72 277.123 50.407C276.577 51.163 275.862 51.542 274.978 51.542C274.086 51.542 273.371 51.153 272.829 50.378C272.338 49.675 272.09 48.827 272.09 47.831ZM272.914 47.844C272.914 48.752 273.114 49.457 273.516 49.957C273.916 50.457 274.403 50.709 274.975 50.709C275.561 50.709 276.051 50.455 276.449 49.949C276.847 49.443 277.044 48.699 277.044 47.719C277.044 47.084 276.942 46.519 276.738 46.02C276.581 45.638 276.342 45.332 276.027 45.103C275.712 44.874 275.365 44.758 274.99 44.758C274.387 44.758 273.891 45.01 273.503 45.512C273.109 46.015 272.914 46.791 272.914 47.844Z" fill="#999999"/>
<path d="M279.006 51.416V50.388H279.851V51.416H279.006Z" fill="#999999"/>
<path d="M281.338 51.416V50.388H282.182V51.416C282.182 51.814 282.123 52.127 282.006 52.354C281.889 52.581 281.717 52.752 281.492 52.874L281.286 52.487C281.436 52.407 281.551 52.288 281.629 52.13C281.705 51.971 281.748 51.734 281.754 51.419H281.338V51.416Z" fill="#999999"/>
<path d="M285.866 51.416V44.055H286.666V50.548H289.639V51.416H285.866Z" fill="#999999"/>
<path d="M291.535 51.416V44.924H289.547V44.055H294.334V44.924H292.334V51.416H291.535Z" fill="#999999"/>
<path d="M295.121 51.416V44.055H297.205C297.721 44.055 298.112 44.101 298.381 44.191C298.733 44.308 299.036 44.523 299.295 44.835C299.553 45.147 299.754 45.538 299.898 46.013C300.044 46.488 300.114 47.048 300.114 47.699C300.114 48.533 299.992 49.24 299.749 49.82C299.505 50.401 299.189 50.813 298.808 51.055C298.423 51.298 297.923 51.419 297.304 51.419H295.122V51.416H295.121ZM295.92 50.548H297.205C297.725 50.548 298.117 50.463 298.385 50.295C298.655 50.125 298.861 49.854 299.004 49.479C299.193 48.98 299.289 48.382 299.289 47.686C299.289 46.94 299.187 46.353 298.985 45.926C298.782 45.498 298.522 45.213 298.205 45.071C297.99 44.973 297.65 44.925 297.184 44.925H295.919V50.548H295.92Z" fill="#999999"/>
</svg>
