<svg width="160" height="100" viewBox="0 0 160 100" fill="none" xmlns="http://www.w3.org/2000/svg">
<path d="M5.17942 10.3615C8.03848 10.3615 10.3562 8.04376 10.3562 5.1847C10.3562 2.32564 8.03848 0.00791931 5.17942 0.00791931C2.32036 0.00791931 0.00263751 2.32564 0.00263751 5.1847C0.00263751 8.04376 2.32036 10.3615 5.17942 10.3615Z" fill="#27348E"/>
<path d="M0 14.9147C0 12.0607 2.31489 9.72466 5.17678 9.72466C8.03604 9.72466 10.3536 12.0607 10.3536 14.9147C10.3536 17.7713 8.0334 20.0941 5.17678 20.0941C2.31489 20.0941 0 17.7713 0 14.9147Z" fill="#27348E"/>
<path d="M10.3562 5.18475H0V14.9173H10.3562V5.18475Z" fill="#27348E"/>
<path d="M74.0579 0H5.17943V20.0941H74.0579V0Z" fill="#27348E"/>
<path d="M91.438 50.6632C94.2971 50.6632 96.6148 48.3455 96.6148 45.4865C96.6148 42.6274 94.2971 40.3097 91.438 40.3097C88.579 40.3097 86.2612 42.6274 86.2612 45.4865C86.2612 48.3455 88.579 50.6632 91.438 50.6632Z" fill="#27348E"/>
<path d="M91.438 60.3853C94.2971 60.3853 96.6148 58.0676 96.6148 55.2085C96.6148 52.3494 94.2971 50.0317 91.438 50.0317C88.579 50.0317 86.2612 52.3494 86.2612 55.2085C86.2612 58.0676 88.579 60.3853 91.438 60.3853Z" fill="#27348E"/>
<path d="M96.6148 45.4865H86.2612V55.2112H96.6148V45.4865Z" fill="#27348E"/>
<path d="M141.665 40.3044H91.4407V60.3932H141.665V40.3044Z" fill="#27348E"/>
<path d="M154.228 60.3879C157.089 60.3879 159.407 58.069 159.407 55.2085C159.407 52.348 157.089 50.0291 154.228 50.0291C151.368 50.0291 149.049 52.348 149.049 55.2085C149.049 58.069 151.368 60.3879 154.228 60.3879Z" fill="#27348E"/>
<path d="M154.228 50.666C157.089 50.666 159.407 48.347 159.407 45.4865C159.407 42.626 157.089 40.3071 154.228 40.3071C151.368 40.3071 149.049 42.626 149.049 45.4865C149.049 48.347 151.368 50.666 154.228 50.666Z" fill="#27348E"/>
<path d="M159.407 45.4865H149.049V55.2112H159.407V45.4865Z" fill="#27348E"/>
<path d="M154.231 40.3044H104.014V60.3932H154.231V40.3044Z" fill="#27348E"/>
<path d="M86.2612 85.0906C86.2612 82.2314 88.5814 79.9138 91.438 79.9138C94.2973 79.9138 96.6122 82.2314 96.6122 85.0906C96.6122 87.9605 94.2973 90.2648 91.438 90.2648C88.5814 90.2648 86.2612 87.9605 86.2612 85.0906Z" fill="#27348E"/>
<path d="M91.438 99.9947C94.2971 99.9947 96.6148 97.677 96.6148 94.8179C96.6148 91.9588 94.2971 89.6411 91.438 89.6411C88.579 89.6411 86.2612 91.9588 86.2612 94.8179C86.2612 97.677 88.579 99.9947 91.438 99.9947Z" fill="#27348E"/>
<path d="M96.6148 85.0906H86.2612V94.8179H96.6148V85.0906Z" fill="#27348E"/>
<path d="M141.665 79.9138H91.4407V100H141.665V79.9138Z" fill="#27348E"/>
<path d="M159.407 94.8179C159.407 97.6772 157.085 100 154.231 100C151.371 100 149.049 97.6772 149.049 94.8179C149.049 91.9692 151.371 89.6517 154.231 89.6517C157.085 89.6438 159.407 91.9666 159.407 94.8179Z" fill="#27348E"/>
<path d="M159.407 85.0906C159.407 87.9605 157.085 90.2648 154.231 90.2648C151.371 90.2648 149.049 87.9605 149.049 85.0906C149.049 82.2314 151.371 79.9138 154.231 79.9138C157.085 79.9138 159.407 82.2314 159.407 85.0906Z" fill="#27348E"/>
<path d="M159.407 85.0906H149.049V94.8179H159.407V85.0906Z" fill="#27348E"/>
<path d="M154.231 79.9138H104.014V100H154.231V79.9138Z" fill="#27348E"/>
<path d="M13.5431 59.545C16.084 59.545 18.1439 57.4852 18.1439 54.9443C18.1439 52.4034 16.084 50.3436 13.5431 50.3436C11.0022 50.3436 8.94244 52.4034 8.94244 54.9443C8.94244 57.4852 11.0022 59.545 13.5431 59.545Z" fill="#27348E"/>
<path d="M4.90989 59.5447C7.45078 59.5447 9.51059 57.4848 9.51059 54.944C9.51059 52.4031 7.45078 50.3432 4.90989 50.3432C2.36899 50.3432 0.309181 52.4031 0.309181 54.944C0.309181 57.4848 2.36899 59.5447 4.90989 59.5447Z" fill="#27348E"/>
<path d="M4.90988 90.8038C7.44675 90.8038 9.50531 92.873 9.50531 95.3993C9.50531 97.9361 7.44939 99.9973 4.90988 99.9973C2.37038 99.9973 0.311821 97.9361 0.311821 95.3993C0.311821 92.873 2.37302 90.8038 4.90988 90.8038Z" fill="#27348E"/>
<path d="M13.5431 50.3409H4.90988V59.5423H13.5431V50.3409Z" fill="#27348E"/>
<path d="M18.1439 54.9496H0.311821V95.4019H18.1439V54.9496Z" fill="#27348E"/>
<path d="M79.7526 14.9411H58.6702V94.6832H79.7526V14.9411Z" fill="#27348E"/>
<path d="M107.164 50.658H86.2612V94.6831H107.164V50.658Z" fill="#27348E"/>
<path d="M154.228 20.0941C157.089 20.0941 159.407 17.7752 159.407 14.9147C159.407 12.0541 157.089 9.73523 154.228 9.73523C151.368 9.73523 149.049 12.0541 149.049 14.9147C149.049 17.7752 151.368 20.0941 154.228 20.0941Z" fill="#27348E"/>
<path d="M159.407 5.18471C159.407 8.04661 157.085 10.3589 154.231 10.3589C151.371 10.3589 149.049 8.04661 149.049 5.18471C149.049 2.31753 151.371 0 154.231 0C157.085 0 159.407 2.31753 159.407 5.18471Z" fill="#27348E"/>
<path d="M159.407 5.18475H149.049V14.9173H159.407V5.18475Z" fill="#27348E"/>
<path d="M154.233 0H68.7648V20.0941H154.233V0Z" fill="#27348E"/>
<path d="M74.5256 100C77.4124 100 79.7526 97.6598 79.7526 94.773C79.7526 91.8862 77.4124 89.546 74.5256 89.546C71.6388 89.546 69.2986 91.8862 69.2986 94.773C69.2986 97.6598 71.6388 100 74.5256 100Z" fill="#27348E"/>
<path d="M79.75 84.9585H69.2986V94.773H79.75V84.9585Z" fill="#27348E"/>
<path d="M74.523 79.7315H4.06162V100H74.523V79.7315Z" fill="#27348E"/>
<path d="M18.1439 72.9771C18.1439 72.9771 18.239 79.7315 23.1912 79.7315L21.8249 84.2582H15.1657L13.1996 72.9771H18.1439Z" fill="#27348E"/>
<path d="M58.7257 72.9771C58.7257 72.9771 58.6306 79.7315 53.6837 79.7315L55.0473 84.2582H61.7065L63.6673 72.9771H58.7257Z" fill="#27348E"/>
<path d="M107.151 67.2612C107.151 67.2612 107.766 60.3906 114.51 60.3906L113.403 54.7989L98.3774 59.3256L104.014 68.7992L107.151 67.2612Z" fill="#27348E"/>
<path d="M107.151 73.0247C107.151 73.0247 107.766 79.898 114.51 79.898L113.403 85.4791L98.3774 80.9629L104.014 71.4893L107.151 73.0247Z" fill="#27348E"/>
</svg>
